<?xml version="1.0" encoding="UTF-8" standalone="no"?><!DOCTYPE svg PUBLIC "-//W3C//DTD SVG 1.1//EN" "http://www.w3.org/Graphics/SVG/1.1/DTD/svg11.dtd"><svg width="100%" height="100%" viewBox="0 0 1080 1080" version="1.1" xmlns="http://www.w3.org/2000/svg" xmlns:xlink="http://www.w3.org/1999/xlink" xml:space="preserve" xmlns:serif="http://www.serif.com/" style="fill-rule:evenodd;clip-rule:evenodd;stroke-linejoin:round;stroke-miterlimit:2;"><path d="M229.714,455.978c-19.092,-11.363 -39.76,-27.747 -43.9,-47.391c-2.737,-12.986 -1.522,-24.154 1.996,-21.003c3.991,3.575 23.093,20.689 47.771,37.08c0.352,-1.599 0.711,-3.195 1.078,-4.786c-21.582,-17.692 -42.476,-39.198 -47.035,-58.665c-4.705,-20.087 1.776,-37.378 4.826,-32.263c14.549,24.393 18.222,30.567 50.347,60.142c0.394,-1.317 0.794,-2.631 1.198,-3.941c-7.933,-9.5 -16.661,-20.761 -23.697,-31.992c-5.209,-8.314 -27.807,-42.745 -7.894,-73.676c5.707,-8.865 2.593,21.73 44.244,69.8c6.778,-16.993 14.447,-33.294 22.925,-48.8c-21.847,-10.622 -23.601,-10.683 -22.345,-13.605c1.445,-3.362 13.776,-18.693 15.041,-20.266c3.128,-3.889 4.37,-3.5 7.865,0.064c1.648,1.68 5.965,6.082 12.027,12.314c1.672,-2.669 3.369,-5.31 5.091,-7.922c-4.528,-4.716 -9.543,-9.916 -15.1,-15.65c-14.041,-14.488 -15.918,-16.007 -13.927,-18.61c34.233,-44.748 137.197,-134.736 284.88,-127.748c16.034,0.759 107.346,5.08 189.708,65.341c5.74,4.2 40.327,29.506 65.051,60.605c5.068,6.375 0.467,7.41 -6.451,14.243c-6.04,5.967 -14.511,14.473 -22.61,22.644c1.402,2.138 2.787,4.295 4.156,6.471c6.268,-6.446 10.736,-11.001 12.419,-12.718c3.495,-3.563 4.737,-3.953 7.865,-0.064c1.265,1.573 13.596,16.904 15.041,20.266c1.264,2.941 -0.522,2.984 -22.791,13.821c8.76,15.94 16.664,32.726 23.622,50.244c26.35,-30.748 35.665,-55.417 38.515,-62.967c2.892,-7.659 1.929,-9.511 4.768,-8.898c1.721,0.371 10.989,16.747 9.575,33.725c-2.265,27.185 -25.381,56.451 -40.326,73.8c0.43,1.398 0.854,2.8 1.273,4.206c10.171,-9.263 24.408,-22.934 33.462,-34.494c14.363,-18.337 18.402,-31.401 20.532,-26.475c15.678,36.261 -20.485,71.227 -45.978,91.432c0.386,1.682 0.764,3.369 1.134,5.06c10.821,-6.825 24.062,-16.155 36.813,-27.303c0.867,-0.758 13.661,-13.795 14.223,-9.813c5.012,35.478 -23.547,56.261 -45.283,67.964c0.25,1.615 0.493,3.234 0.729,4.856c16.29,-7.688 35.819,-18.096 38.69,-19.625c9.441,-5.031 1.618,18.851 -5.018,27.655c-6.57,8.717 -17.957,15.4 -30.328,20.513c0.184,2.059 0.357,4.122 0.517,6.191c12.163,-2.993 22.287,-5.645 24.595,-6.249c6.235,-1.633 -1.524,24.318 -23.168,34.017c0.089,3.491 0.143,6.992 0.164,10.504c3.135,0.03 5.122,0.174 5.213,0.501c0.269,0.968 -1.337,5.24 -5.251,9.892c-1.168,87.686 -23.613,168.701 -60.924,234.729c24.59,12.035 26.552,11.972 25.243,15.018c-1.445,3.362 -13.776,18.693 -15.041,20.266c-3.128,3.889 -4.37,3.5 -7.865,-0.064c-1.87,-1.907 -7.177,-7.317 -14.571,-14.931c-1.392,2.166 -2.801,4.313 -4.227,6.441c8.743,8.829 18.237,18.373 24.833,24.888c6.918,6.833 11.519,7.868 6.451,14.243c-24.724,31.099 -59.311,56.405 -65.051,60.605c-82.362,60.261 -173.674,64.583 -189.708,65.341c-147.683,6.989 -250.647,-82.999 -284.88,-127.748c-1.991,-2.603 -0.114,-4.122 13.927,-18.61c6.473,-6.679 12.21,-12.635 17.301,-17.943c-1.74,-2.584 -3.456,-5.196 -5.146,-7.837c-7.186,7.398 -12.336,12.649 -14.173,14.522c-3.495,3.563 -4.737,3.953 -7.865,0.064c-1.265,-1.573 -13.596,-16.904 -15.041,-20.266c-1.301,-3.027 0.629,-2.984 24.788,-14.796c-37.123,-66.031 -59.408,-146.961 -60.477,-234.52c-4.316,-5.498 -4.884,-10.408 -2.817,-10.327l2.789,0.109c0.024,-3.633 0.085,-7.254 0.182,-10.864c-10.685,-5.331 -20.169,-14.075 -24.31,-28.631c-1.034,-3.636 -1.477,-5.791 2.255,-4.707c2.173,0.632 11.758,3.418 23.447,6.533c0.177,-2.286 0.368,-4.566 0.573,-6.841c-5.651,-2.277 -11.089,-4.859 -15.906,-7.792c-22.903,-13.943 -26.653,-44.719 -19.621,-40.765c3.21,1.804 21.534,12.106 38.879,20.141c0.228,-1.565 0.463,-3.127 0.706,-4.685Z" style="fill:#081534;"/><path d="M171.316,372.513c-0.81,-2.208 -1.474,-4.393 -1.979,-6.549c-3.657,-15.613 -2.137,-30.006 0.381,-38.405c2.448,-8.166 6.708,-13.113 9.608,-15.428l4.838,-2.965l1.724,-0.562c-0.403,-13.034 2.361,-26.983 10.998,-40.4c6.875,-10.679 15.405,-11.383 20.659,-11.035l5.537,1.105l4.416,2.078c2.128,1.309 4.485,3.231 6.641,6.245c1.312,1.833 3.077,5.202 4.99,10.271l0.805,2.141l0.151,-0.357c1.456,-3.389 11.66,-16.943 16.065,-22.675c-1.819,-2.107 -2.996,-3.644 -3.712,-4.817c-3.328,-5.454 -3.847,-9.922 -3.693,-13.662c0.19,-4.626 1.561,-8.942 4.933,-13.35c36.353,-47.519 145.584,-143.321 302.411,-135.899c16.993,0.804 113.737,5.472 201.025,69.338c6.099,4.462 42.788,31.412 69.057,64.453c5.73,7.207 6.753,13.201 6.672,17.919c-0.088,5.136 -1.609,9.94 -5.156,14.648c-0.642,0.852 -1.486,1.743 -2.501,2.73c4.918,6.47 12.96,17.307 14.24,20.287c0.277,0.644 0.523,1.277 0.739,1.898c2.862,-7.582 4.022,-11.221 5.108,-12.805l4.595,-4.912l7.017,-3.69c2.957,-0.923 6.74,-1.547 11.908,-0.432l6.64,2.662c1.392,0.85 3.272,2.207 5.239,4.413c3.741,4.195 14.144,22.894 14.262,43.499l4.252,1.893l3.824,2.997c1.694,1.662 3.553,3.985 5.027,7.394c7.674,17.748 6.934,35.295 0.78,51.813l1.164,0.942l3.613,5.13l2.141,6.845c2.345,16.599 -0.693,30.907 -6.855,43.124l1.284,1.303c2.43,3.544 4.662,9.183 4.219,16.67c-0.562,9.483 -7.282,26.927 -13.522,35.207c-0.226,0.3 -0.457,0.599 -0.691,0.896c0.842,2.11 1.431,4.516 1.661,7.256c0.339,4.037 -0.36,10.619 -3.558,18.092c-3.075,7.185 -8.64,15.821 -16.663,23.222l0.459,3.028c0.048,1.537 -0.047,3.589 -0.613,6.055c-0.533,2.323 -1.964,6.385 -4.783,11.048c-2.009,80.614 -21.345,155.599 -53.235,218.982c7.301,3.901 10.5,6.034 11.8,7.418c1.793,1.908 3.009,3.801 3.899,5.611l1.832,5.355c0.852,4.16 0.706,8.601 -1.544,13.838c-1.28,2.98 -9.322,13.817 -14.24,20.287c1.016,0.986 1.86,1.878 2.501,2.73c3.547,4.708 5.068,9.512 5.156,14.648c0.081,4.718 -0.942,10.712 -6.672,17.919c-26.268,33.041 -62.958,59.991 -69.057,64.453c-87.288,63.866 -184.032,68.534 -201.025,69.338c-156.828,7.421 -266.059,-88.38 -302.411,-135.899c-3.372,-4.408 -4.744,-8.724 -4.933,-13.35c-0.153,-3.739 0.366,-8.207 3.693,-13.662c0.716,-1.173 1.893,-2.711 3.712,-4.818c-4.404,-5.732 -14.608,-19.286 -16.065,-22.675c-2.228,-5.184 -2.389,-9.587 -1.571,-13.706l1.789,-5.344l3.87,-5.648c1.274,-1.372 4.39,-3.486 11.492,-7.305c-31.806,-63.528 -51.019,-138.649 -52.856,-219.377c-3.184,-6.109 -4.107,-11.635 -4.078,-15.02c0.011,-1.317 0.124,-2.556 0.313,-3.717c-8.725,-7.574 -15.812,-17.759 -19.702,-31.435c-2.159,-7.591 -1.244,-13.863 0.494,-18.272c-6.436,-8.648 -10.398,-17.927 -12.249,-25.478c-2.147,-8.757 -1.513,-16.027 -0.257,-20.175c0.929,-3.067 2.262,-5.59 3.825,-7.661c-2.651,-4.955 -4.623,-10.079 -5.729,-15.324c-2.673,-12.679 -2.023,-24.247 -0.416,-29.654c1.479,-4.975 3.941,-8.404 6.304,-10.717Zm58.398,83.465c-0.242,1.559 -0.477,3.12 -0.706,4.685c-17.346,-8.035 -35.67,-18.337 -38.879,-20.141c-7.032,-3.953 -3.282,26.823 19.621,40.765c4.817,2.933 10.256,5.515 15.906,7.792c-0.206,2.275 -0.397,4.555 -0.573,6.841c-11.689,-3.115 -21.274,-5.901 -23.447,-6.533c-3.731,-1.085 -3.289,1.07 -2.255,4.707c4.14,14.556 13.625,23.3 24.31,28.631c-0.097,3.61 -0.158,7.231 -0.182,10.864l-2.789,-0.109c-2.067,-0.081 -1.499,4.829 2.817,10.327c1.069,87.559 23.354,168.488 60.477,234.52c-24.16,11.812 -26.089,11.769 -24.788,14.796c1.445,3.362 13.776,18.693 15.041,20.266c3.128,3.889 4.37,3.5 7.865,-0.064c1.837,-1.873 6.987,-7.124 14.173,-14.522c1.69,2.64 3.406,5.253 5.146,7.837c-5.09,5.308 -10.828,11.264 -17.301,17.943c-14.041,14.488 -15.918,16.007 -13.927,18.61c34.233,44.748 137.197,134.736 284.88,127.748c16.034,-0.759 107.346,-5.08 189.708,-65.341c5.74,-4.2 40.327,-29.506 65.051,-60.605c5.068,-6.375 0.467,-7.41 -6.451,-14.243c-6.596,-6.515 -16.09,-16.058 -24.833,-24.888c1.426,-2.128 2.835,-4.275 4.227,-6.441c7.393,7.614 12.7,13.024 14.571,14.931c3.495,3.563 4.737,3.953 7.865,0.064c1.265,-1.573 13.596,-16.904 15.041,-20.266c1.309,-3.046 -0.653,-2.983 -25.243,-15.018c37.311,-66.029 59.757,-147.043 60.924,-234.729c3.914,-4.652 5.52,-8.924 5.251,-9.892c-0.091,-0.327 -2.078,-0.471 -5.213,-0.501c-0.021,-3.512 -0.076,-7.013 -0.164,-10.504c21.645,-9.699 29.403,-35.65 23.168,-34.017c-2.308,0.605 -12.432,3.256 -24.595,6.249c-0.161,-2.068 -0.333,-4.132 -0.517,-6.191c12.37,-5.113 23.758,-11.796 30.328,-20.513c6.636,-8.805 14.458,-32.686 5.018,-27.655c-2.87,1.53 -22.399,11.937 -38.69,19.625c-0.236,-1.622 -0.478,-3.24 -0.729,-4.856c21.736,-11.703 50.295,-32.486 45.283,-67.964c-0.563,-3.982 -13.356,9.055 -14.223,9.813c-12.751,11.148 -25.992,20.478 -36.813,27.303c-0.37,-1.691 -0.748,-3.378 -1.134,-5.06c25.493,-20.205 61.656,-55.171 45.978,-91.432c-2.13,-4.926 -6.169,8.138 -20.532,26.475c-9.055,11.56 -23.292,25.231 -33.462,34.494c-0.418,-1.406 -0.843,-2.808 -1.273,-4.206c14.945,-17.349 38.061,-46.615 40.326,-73.8c1.415,-16.977 -7.854,-33.353 -9.575,-33.725c-2.839,-0.613 -1.876,1.239 -4.768,8.898c-2.851,7.55 -12.166,32.219 -38.515,62.967c-6.958,-17.518 -14.861,-34.304 -23.622,-50.244c22.269,-10.838 24.055,-10.88 22.791,-13.821c-1.445,-3.362 -13.776,-18.693 -15.041,-20.266c-3.128,-3.889 -4.37,-3.5 -7.865,0.064c-1.684,1.716 -6.151,6.272 -12.419,12.718c-1.368,-2.176 -2.754,-4.333 -4.156,-6.471c8.099,-8.172 16.569,-16.678 22.61,-22.644c6.918,-6.833 11.519,-7.868 6.451,-14.243c-24.724,-31.099 -59.311,-56.405 -65.051,-60.605c-82.362,-60.261 -173.674,-64.583 -189.708,-65.341c-147.683,-6.989 -250.647,82.999 -284.88,127.748c-1.991,2.603 -0.114,4.122 13.927,18.61c5.556,5.733 10.571,10.934 15.1,15.65c-1.722,2.613 -3.419,5.253 -5.091,7.922c-6.062,-6.232 -10.379,-10.633 -12.027,-12.314c-3.495,-3.563 -4.737,-3.953 -7.865,-0.064c-1.265,1.573 -13.596,16.904 -15.041,20.266c-1.255,2.922 0.498,2.983 22.345,13.605c-8.478,15.506 -16.147,31.807 -22.925,48.8c-41.651,-48.07 -38.536,-78.665 -44.244,-69.8c-19.913,30.931 2.685,65.362 7.894,73.676c7.036,11.231 15.764,22.491 23.697,31.992c-0.404,1.31 -0.804,2.624 -1.198,3.941c-32.126,-29.576 -35.798,-35.75 -50.347,-60.142c-3.05,-5.114 -9.531,12.176 -4.826,32.263c4.56,19.467 25.454,40.973 47.035,58.665c-0.366,1.591 -0.726,3.187 -1.078,4.786c-24.677,-16.391 -43.78,-33.505 -47.771,-37.08c-3.517,-3.151 -4.733,8.017 -1.996,21.003c4.14,19.644 24.808,36.028 43.9,47.391Z" style="fill:#081534;"/><path d="M540,123.035c176.518,0 320.425,185.327 320.425,414.167c0,228.839 -143.907,414.167 -320.425,414.167c-176.518,0 -320.425,-185.327 -320.425,-414.167c0,-228.839 143.907,-414.167 320.425,-414.167Zm0,8.333c-172.578,0 -312.091,182.102 -312.091,405.833c-0,223.731 139.514,405.833 312.091,405.833c172.578,0 312.091,-182.102 312.091,-405.833c0,-223.731 -139.514,-405.833 -312.091,-405.833Z" style="fill:#daa520;"/><circle cx="540" cy="536.983" r="300" style="fill:#081534;"/><circle cx="540" cy="537.202" r="290" style="fill:#daa520;"/><path d="M540,246.702c160.331,0 290.5,130.169 290.5,290.5c0,160.331 -130.169,290.5 -290.5,290.5c-160.331,0 -290.5,-130.169 -290.5,-290.5c0,-160.331 130.169,-290.5 290.5,-290.5Zm0,1c-159.779,0 -289.5,129.721 -289.5,289.5c0,159.779 129.721,289.5 289.5,289.5c159.779,0 289.5,-129.721 289.5,-289.5c0,-159.779 -129.721,-289.5 -289.5,-289.5Z" style="fill:none;"/><g><path d="M389.904,738.011l-27.502,59.236c0,0 162.046,175.491 363.464,-10.599l-38.595,-53.924l-39.121,40.179c0,0 -102.82,70.841 -224.284,2.115c0,0 -37.392,-31.72 -33.962,-37.007Z" style="fill:#081534;"/><path d="M690.096,343.32l27.502,-59.236c0,0 -162.046,-175.491 -363.464,10.599l38.595,53.924l39.121,-40.179c0,0 102.82,-70.841 224.284,-2.115c0,0 37.392,31.72 33.962,37.007Z" style="fill:#081534;"/></g><circle cx="540" cy="537.202" r="280" style="fill:#081534;"/><circle cx="540" cy="537.202" r="200" style="fill:#daa520;"/><g><circle cx="540" cy="537.202" r="240" style="fill:none;"/><path d="M630,302.202l4.041,12.438l13.078,0l-10.58,7.687l4.041,12.438l-10.58,-7.687l-10.58,7.687l4.041,-12.438l-10.58,-7.687l13.078,-0l4.041,-12.438Z" style="fill:#daa520;"/><path d="M699,352.202l4.041,12.438l13.078,0l-10.58,7.687l4.041,12.438l-10.58,-7.687l-10.58,7.687l4.041,-12.438l-10.58,-7.687l13.078,-0l4.041,-12.438Z" style="fill:#daa520;"/><path d="M450,302.202l4.041,12.438l13.078,0l-10.58,7.687l4.041,12.438l-10.58,-7.687l-10.58,7.687l4.041,-12.438l-10.58,-7.687l13.078,-0l4.041,-12.438Z" style="fill:#daa520;"/><path d="M381,352.202l4.041,12.438l13.078,0l-10.58,7.687l4.041,12.438l-10.58,-7.687l-10.58,7.687l4.041,-12.438l-10.58,-7.687l13.078,-0l4.041,-12.438Z" style="fill:#daa520;"/><path d="M540,280.92l4.041,12.438l13.078,0l-10.58,7.687l4.041,12.438l-10.58,-7.687l-10.58,7.687l4.041,-12.438l-10.58,-7.687l13.078,-0l4.041,-12.438Z" style="fill:#daa520;"/></g><circle cx="540" cy="537.202" r="190" style="fill:#fff;"/><circle cx="540" cy="537.202" r="175" style="fill:#dc143c;"/><path d="M510.119,359.798l-0.323,-0.458c0.229,-0.063 0.457,-0.124 0.686,-0.185l3.34,-5.915l52.107,-0.59l3.604,6.509c0.224,0.06 0.447,0.12 0.671,0.181l-0.32,0.453l0.32,0.577l-0.727,0l-29.477,41.754l-29.477,-41.754l-0.727,0l0.323,-0.572Z" style="fill:#fff;"/><path d="M711.599,321.128l-0.003,-0.001c-1.688,-0.483 -14.604,-4.204 -17.59,-5.383c-1.042,-0.411 -1.731,-0.822 -2.086,-1.059l-1.699,-1.487l-1.515,-2.253l-0.7,-1.987l-0.207,-2.868l0.808,-3.264c0.736,-1.772 3.084,-5.426 10.217,-13.073l1.966,-1.661l2.787,-1.266l3.106,-0.356l2.679,0.469c1.326,0.411 2.929,1.195 4.732,2.651c2.013,1.625 4.8,4.6 8.744,9.189c0.643,0.748 6.204,7.218 8.069,9.333c3.969,4.501 3.877,8.057 3.661,9.469l-1.291,3.41l-2.552,2.568l-2.881,1.229l-2.721,0.242c-2.192,-0.096 -7.776,-2.146 -13.525,-3.901Z" style="fill:#daa520;"/><path d="M713.96,313.136c8.206,2.501 15.865,6.348 10.697,0.488c-1.881,-2.133 -7.489,-8.657 -8.138,-9.412c-7.091,-8.249 -9.755,-10.754 -11.602,-8.774c-9.779,10.484 -9.209,11.377 -8.425,12.273c0.508,0.58 16.061,5.023 17.468,5.425Z" style="fill:#081534;"/><path d="M372.692,322.157l-0.017,0.005c-5.744,1.754 -11.32,3.801 -13.511,3.897l-2.721,-0.242l-2.881,-1.229l-2.552,-2.568l-1.291,-3.41c-0.216,-1.411 -0.308,-4.968 3.661,-9.469c1.865,-2.115 7.426,-8.584 8.069,-9.333c3.944,-4.588 6.731,-7.563 8.744,-9.189c1.803,-1.456 3.406,-2.24 4.732,-2.651l2.679,-0.469l3.106,0.356l2.787,1.266l1.966,1.661c7.133,7.647 9.481,11.301 10.217,13.073l0.808,3.264l-0.207,2.868l-0.7,1.987l-1.515,2.253l-1.699,1.487c-0.355,0.236 -1.044,0.647 -2.086,1.059c-2.986,1.179 -15.902,4.9 -17.59,5.383Z" style="fill:#daa520;"/><path d="M370.327,314.166c-8.206,2.501 -15.865,6.348 -10.697,0.488c1.881,-2.133 7.489,-8.657 8.138,-9.412c7.091,-8.249 9.755,-10.754 11.602,-8.774c9.779,10.484 9.209,11.377 8.425,12.273c-0.508,0.58 -16.061,5.023 -17.468,5.425Z" style="fill:#081534;"/><path d="M346.272,321.127c0.701,-0.21 1.569,-0.479 2.43,-0.771c4.733,-1.605 12.218,-4.363 24.781,-8.237l0.01,-0.004c3.804,-1.508 4.876,-2.252 5.661,-2.577c1.295,-0.537 2.374,-0.804 4.027,-0.857c0.852,-0.027 1.553,0.031 2.116,0.116l2.161,0.592l1.9,1.062l1.382,1.265l1.311,1.988l0.72,2.295l0.05,2.482l-0.706,2.53c-0.463,1.04 -1.56,2.725 -3.596,4.382c-2.552,2.077 -8.26,5.381 -10.718,7.481c-26.391,22.541 -33.53,33.83 -36.677,36.777c-1.473,1.38 -2.815,2.092 -3.924,2.492l-2.458,0.534l-2.807,-0.204c-1.869,-0.428 -4.231,-1.552 -6.435,-4.759c-1.906,-2.775 -22.363,-42.197 -24.328,-46.294c-1.756,-3.66 -2.353,-3.176 -5.997,-5.015c-27.748,-14.004 -37.471,-18.042 -40.318,-20.364c-1.277,-1.042 -2.078,-2.061 -2.632,-2.99l-1.246,-3.331l-0.021,-3.283c0.139,-0.871 0.409,-1.814 0.854,-2.849c1.573,-3.662 14.826,-20.486 16.204,-22.199c4.066,-5.055 7.743,-6.01 10.703,-5.863c2.522,0.125 5.734,1.367 9.606,5.314c4.712,4.805 31.191,31.802 57.945,60.286Zm-76.022,-35.678c5.634,2.72 16.273,7.92 32.437,16.078c1.498,0.756 2.742,1.384 3.801,1.948c-12.648,-13.159 -23.022,-23.779 -27.858,-28.717c-2.327,2.873 -5.828,7.242 -8.38,10.691Zm45.345,27.531c0.197,0.388 0.399,0.798 0.607,1.232c1.404,2.927 12.685,24.85 18.974,36.685c2.853,-3.24 6.9,-7.6 12.307,-12.91c-2.741,0.465 -4.743,0.209 -6.462,-0.349c-1.994,-0.647 -3.773,-1.771 -5.687,-3.812c-6.69,-7.131 -13.382,-14.189 -19.739,-20.847Z" style="fill:#daa520;"/><path d="M376.243,319.988c5.917,-2.321 5.699,-2.93 7.203,-2.978c4.77,-0.151 -7.157,6.196 -11.056,9.526c-37.978,32.437 -36.409,41.713 -40.019,36.459c-1.859,-2.707 -21.766,-41.183 -23.683,-45.179c-2.958,-6.167 -3.616,-5.751 -9.756,-8.85c-38.066,-19.212 -40.987,-18.536 -39.461,-22.088c1.445,-3.362 13.776,-18.693 15.041,-20.266c3.128,-3.889 4.37,-3.5 7.865,0.064c4.773,4.867 31.93,32.555 59.034,61.449c3.772,4.021 4.746,1.123 34.831,-8.137Z" style="fill:#081534;"/><path d="M733.728,320.097c26.754,-28.485 53.233,-55.482 57.945,-60.286c3.871,-3.947 7.084,-5.189 9.606,-5.314c2.96,-0.147 6.637,0.808 10.703,5.863c1.378,1.713 14.631,18.537 16.204,22.199c0.445,1.036 0.715,1.978 0.854,2.849l-0.021,3.283l-1.246,3.331c-0.554,0.929 -1.355,1.948 -2.632,2.99c-2.846,2.322 -12.57,6.36 -40.318,20.364c-3.644,1.839 -4.242,1.355 -5.997,5.015c-0.904,1.885 -5.766,11.362 -10.89,21.213c-6.008,11.552 -12.409,23.583 -13.438,25.081c-2.203,3.208 -4.565,4.331 -6.435,4.759l-2.807,0.204l-2.458,-0.534c-1.108,-0.4 -2.451,-1.112 -3.924,-2.492c-3.146,-2.947 -10.286,-14.236 -36.677,-36.777c-2.458,-2.1 -8.166,-5.403 -10.718,-7.481c-2.036,-1.657 -3.133,-3.342 -3.596,-4.382l-0.706,-2.53l0.05,-2.482l0.72,-2.295l1.311,-1.988l1.382,-1.265l1.9,-1.062l2.161,-0.592c0.563,-0.086 1.263,-0.143 2.116,-0.116c1.653,0.052 2.733,0.32 4.027,0.857c0.786,0.326 1.859,1.07 5.669,2.58c12.564,3.875 20.05,6.633 24.784,8.238c0.86,0.292 1.729,0.561 2.43,0.771Zm-1.21,16.86c5.399,5.303 9.442,9.658 12.295,12.897c2.342,-4.426 5.379,-10.253 8.337,-15.941c5.008,-9.629 9.765,-18.888 10.649,-20.731c0.208,-0.434 0.41,-0.844 0.607,-1.232c-6.357,6.658 -13.05,13.715 -19.739,20.847c-1.914,2.04 -3.693,3.164 -5.687,3.812c-1.719,0.558 -3.72,0.814 -6.462,0.349Zm40.995,-34.513c1.059,-0.564 2.303,-1.192 3.801,-1.948c16.163,-8.158 26.802,-13.358 32.437,-16.078c-2.552,-3.449 -6.053,-7.819 -8.38,-10.691c-4.836,4.938 -15.21,15.558 -27.858,28.717Z" style="fill:#daa520;"/><path d="M703.757,318.959c-5.917,-2.321 -5.699,-2.93 -7.203,-2.978c-4.77,-0.151 7.157,6.196 11.056,9.526c37.978,32.437 36.409,41.713 40.019,36.459c0.992,-1.444 7.121,-13.069 12.914,-24.207c5.066,-9.74 9.875,-19.108 10.769,-20.972c2.958,-6.167 3.616,-5.751 9.756,-8.85c38.066,-19.212 40.987,-18.536 39.461,-22.088c-1.445,-3.362 -13.776,-18.693 -15.041,-20.266c-3.128,-3.889 -4.37,-3.5 -7.865,0.064c-4.773,4.867 -31.93,32.555 -59.034,61.449c-3.772,4.021 -4.746,1.123 -34.831,-8.137Z" style="fill:#081534;"/><path d="M762.367,302.698c-7.401,7.305 -16.175,16.767 -20.608,19.181c-2.767,1.507 -5.211,1.69 -6.969,1.43l-2.49,-0.732l-2.345,-1.53c-14.095,-12.613 -36.271,-60.354 -117.765,-89.88c-16.822,-6.095 -85.132,-26.172 -158.716,5.498c-68.592,29.521 -88.711,69.771 -103.716,83.906l-3.332,2.176l-2.136,0.573l-2.269,0.055c-1.472,-0.14 -3.654,-0.63 -6.594,-3.036c-4.633,-3.79 -16.886,-17.717 -57.013,-59.121c-9.179,-9.471 -13.469,-13.962 -15.058,-16.567c-1.622,-2.659 -1.95,-4.817 -1.875,-6.64c0.089,-2.178 0.784,-4.191 2.372,-6.266c35.081,-45.857 140.551,-138.17 291.892,-131.008c16.417,0.777 109.903,5.237 194.235,66.94c5.884,4.305 41.312,30.268 66.653,62.144c3.202,4.028 4.004,7.289 3.958,9.925c-0.044,2.58 -0.859,4.975 -2.641,7.34c-1.575,2.09 -4.654,4.358 -8.435,8.093c-15.266,15.08 -46.121,46.446 -46.952,47.323c-0.064,0.067 -0.128,0.133 -0.194,0.198Zm-482.566,-64.286c2.204,2.402 5.923,6.402 10.578,11.206c31.74,32.75 45.569,47.95 52.083,54.512c15.503,-17.408 38.937,-54.591 104.421,-82.774c79.271,-34.117 152.861,-12.425 170.983,-5.859c77.348,28.023 103.797,71.315 119.003,88.768c3.613,-3.493 9.624,-9.32 13.716,-13.357l0.015,-0.015c2.39,-2.459 32.228,-32.786 47.2,-47.574c1.585,-1.566 3.391,-3.213 4.746,-4.423c-24.026,-29.726 -56.894,-53.734 -62.411,-57.771c-80.391,-58.82 -169.531,-63.002 -185.181,-63.743c-140.314,-6.64 -239.276,76.392 -275.153,121.028Z" style="fill:#daa520;"/><path d="M756.513,296.767c-8.492,8.382 -18.678,20.15 -21.001,18.07c-14.394,-12.881 -37.258,-61.352 -120.484,-91.505c-17.472,-6.33 -88.422,-27.215 -164.85,5.679c-70.073,30.158 -90.806,71.055 -106.136,85.494c-2.642,2.489 -2.992,-0.63 -59.647,-59.088c-14.041,-14.488 -15.918,-16.007 -13.927,-18.61c34.233,-44.748 137.197,-134.736 284.88,-127.748c16.034,0.759 107.346,5.08 189.708,65.341c5.74,4.2 40.327,29.506 65.051,60.605c5.068,6.375 0.467,7.41 -6.451,14.243c-15.329,15.142 -46.309,46.638 -47.144,47.518Z" style="fill:#081534;"/><path d="M711.596,758.873l0.017,-0.005c5.744,-1.754 11.32,-3.801 13.511,-3.897l2.721,0.242l2.881,1.229l2.552,2.568l1.291,3.41c0.216,1.411 0.308,4.968 -3.661,9.469c-1.865,2.115 -7.426,8.584 -8.069,9.333c-3.944,4.588 -6.731,7.563 -8.744,9.189c-1.803,1.456 -3.406,2.24 -4.732,2.651l-2.679,0.469l-3.106,-0.356l-2.787,-1.266l-1.966,-1.661c-7.133,-7.647 -9.481,-11.301 -10.217,-13.073l-0.808,-3.264l0.207,-2.868l0.7,-1.987l1.515,-2.253l1.699,-1.487c0.355,-0.236 1.044,-0.647 2.086,-1.059c2.986,-1.179 15.902,-4.9 17.59,-5.383Z" style="fill:#daa520;"/><path d="M713.96,766.864c8.206,-2.501 15.865,-6.348 10.697,-0.488c-1.881,2.133 -7.489,8.657 -8.138,9.412c-7.091,8.249 -9.755,10.754 -11.602,8.774c-9.779,-10.484 -9.209,-11.377 -8.425,-12.273c0.508,-0.58 16.061,-5.023 17.468,-5.425Z" style="fill:#081534;"/><path d="M372.689,757.842l0.003,0.001c1.688,0.483 14.604,4.204 17.59,5.383c1.042,0.411 1.731,0.822 2.086,1.059l1.699,1.487l1.515,2.253l0.7,1.987l0.207,2.868l-0.808,3.264c-0.736,1.772 -3.084,5.426 -10.217,13.073l-1.966,1.661l-2.787,1.266l-3.106,0.356l-2.679,-0.469c-1.326,-0.411 -2.929,-1.195 -4.732,-2.651c-2.013,-1.625 -4.8,-4.6 -8.744,-9.189c-0.643,-0.748 -6.204,-7.218 -8.069,-9.333c-3.969,-4.501 -3.877,-8.057 -3.661,-9.469l1.291,-3.41l2.552,-2.568l2.881,-1.229l2.721,-0.242c2.192,0.096 7.776,2.146 13.525,3.901Z" style="fill:#daa520;"/><path d="M370.327,765.834c-8.206,-2.501 -15.865,-6.348 -10.697,-0.488c1.881,2.133 7.489,8.657 8.138,9.412c7.091,8.249 9.755,10.754 11.602,8.774c9.779,-10.484 9.209,-11.377 8.425,-12.273c-0.508,-0.58 -16.061,-5.023 -17.468,-5.425Z" style="fill:#081534;"/><path d="M346.272,758.873c-26.754,28.485 -53.233,55.482 -57.945,60.286c-3.871,3.947 -7.084,5.189 -9.606,5.314c-2.96,0.147 -6.637,-0.808 -10.703,-5.863c-1.378,-1.713 -14.631,-18.537 -16.204,-22.199c-0.445,-1.036 -0.715,-1.978 -0.854,-2.849l0.021,-3.283l1.246,-3.331c0.554,-0.929 1.355,-1.948 2.632,-2.99c2.846,-2.322 12.57,-6.36 40.318,-20.364c3.644,-1.839 4.242,-1.355 5.997,-5.015c1.965,-4.097 22.422,-43.519 24.328,-46.294c2.203,-3.208 4.565,-4.331 6.435,-4.759l2.807,-0.204l2.458,0.534c1.108,0.4 2.451,1.112 3.924,2.492c3.146,2.947 10.286,14.236 36.677,36.777c2.458,2.1 8.166,5.403 10.718,7.481c2.036,1.657 3.133,3.342 3.596,4.382l0.706,2.53l-0.05,2.482l-0.72,2.295l-1.311,1.988l-1.382,1.265l-1.9,1.062l-2.161,0.592c-0.563,0.086 -1.263,0.143 -2.116,0.116c-1.653,-0.052 -2.733,-0.32 -4.027,-0.857c-0.786,-0.326 -1.859,-1.07 -5.669,-2.58c-12.564,-3.875 -20.05,-6.633 -24.784,-8.238c-0.86,-0.292 -1.729,-0.561 -2.43,-0.771Zm-76.022,35.678c2.552,3.449 6.053,7.819 8.38,10.691c4.836,-4.938 15.21,-15.558 27.858,-28.717c-1.059,0.564 -2.303,1.192 -3.801,1.948c-16.163,8.158 -26.802,13.358 -32.437,16.078Zm45.345,-27.531c6.357,-6.658 13.05,-13.715 19.739,-20.847c1.914,-2.04 3.693,-3.164 5.687,-3.812c1.719,-0.558 3.72,-0.814 6.462,-0.349c-5.406,-5.31 -9.453,-9.67 -12.307,-12.91c-6.289,11.835 -17.57,33.758 -18.974,36.685c-0.208,0.434 -0.41,0.844 -0.607,1.232Z" style="fill:#daa520;"/><path d="M376.243,760.012c5.917,2.321 5.699,2.93 7.203,2.978c4.77,0.151 -7.157,-6.196 -11.056,-9.526c-37.978,-32.437 -36.409,-41.713 -40.019,-36.459c-1.859,2.707 -21.766,41.183 -23.683,45.179c-2.958,6.167 -3.616,5.751 -9.756,8.85c-38.066,19.212 -40.987,18.536 -39.461,22.088c1.445,3.362 13.776,18.693 15.041,20.266c3.128,3.889 4.37,3.5 7.865,-0.064c4.773,-4.867 31.93,-32.555 59.034,-61.449c3.772,-4.021 4.746,-1.123 34.831,8.137Z" style="fill:#081534;"/><path d="M733.728,759.903c-0.701,0.21 -1.569,0.479 -2.43,0.771c-4.733,1.605 -12.218,4.363 -24.781,8.237l-0.01,0.004c-3.804,1.508 -4.876,2.252 -5.661,2.577c-1.295,0.537 -2.374,0.804 -4.027,0.857c-0.852,0.027 -1.553,-0.031 -2.116,-0.116l-2.161,-0.592l-1.9,-1.062l-1.382,-1.265l-1.311,-1.988l-0.72,-2.295l-0.05,-2.482l0.706,-2.53c0.463,-1.04 1.56,-2.725 3.596,-4.382c2.552,-2.077 8.26,-5.381 10.718,-7.481c26.391,-22.541 33.53,-33.83 36.677,-36.777c1.473,-1.38 2.815,-2.092 3.924,-2.492l2.458,-0.534l2.807,0.204c1.869,0.428 4.231,1.552 6.435,4.759c1.906,2.775 22.363,42.197 24.328,46.294c1.756,3.66 2.353,3.176 5.997,5.015c27.748,14.004 37.471,18.042 40.318,20.364c1.277,1.042 2.078,2.061 2.632,2.99l1.246,3.331l0.021,3.283c-0.139,0.871 -0.409,1.814 -0.854,2.849c-1.573,3.662 -14.826,20.486 -16.204,22.199c-4.066,5.055 -7.743,6.01 -10.703,5.863c-2.522,-0.125 -5.734,-1.367 -9.606,-5.314c-4.712,-4.805 -31.191,-31.802 -57.945,-60.286Zm39.784,17.653c12.648,13.159 23.022,23.779 27.858,28.717c2.327,-2.873 5.828,-7.242 8.38,-10.691c-5.634,-2.72 -16.273,-7.92 -32.437,-16.078c-1.498,-0.756 -2.742,-1.384 -3.801,-1.948Zm-40.995,-34.513c2.741,-0.465 4.743,-0.209 6.462,0.349c1.994,0.647 3.773,1.771 5.687,3.812c6.69,7.131 13.382,14.189 19.739,20.847c-0.197,-0.388 -0.399,-0.798 -0.607,-1.232c-1.404,-2.927 -12.685,-24.85 -18.974,-36.685c-2.853,3.24 -6.9,7.6 -12.307,12.91Z" style="fill:#daa520;"/><path d="M703.757,761.041c-5.917,2.321 -5.699,2.93 -7.203,2.978c-4.77,0.151 7.157,-6.196 11.056,-9.526c37.978,-32.437 36.409,-41.713 40.019,-36.459c1.859,2.707 21.766,41.183 23.683,45.179c2.958,6.167 3.616,5.751 9.756,8.85c38.066,19.212 40.987,18.536 39.461,22.088c-1.445,3.362 -13.776,18.693 -15.041,20.266c-3.128,3.889 -4.37,3.5 -7.865,-0.064c-4.773,-4.867 -31.93,-32.555 -59.034,-61.449c-3.772,-4.021 -4.746,-1.123 -34.831,8.137Z" style="fill:#081534;"/><path d="M762.561,777.5c0.831,0.877 31.686,32.243 46.952,47.323c3.781,3.735 6.86,6.002 8.435,8.093c1.782,2.365 2.597,4.76 2.641,7.34c0.045,2.637 -0.756,5.898 -3.958,9.925c-25.342,31.876 -60.77,57.839 -66.653,62.144c-84.332,61.703 -177.818,66.163 -194.235,66.94c-151.341,7.162 -256.812,-85.152 -291.892,-131.008c-1.587,-2.075 -2.283,-4.089 -2.372,-6.266c-0.075,-1.823 0.253,-3.981 1.875,-6.64c1.589,-2.605 5.88,-7.096 15.058,-16.567c40.127,-41.404 52.38,-55.331 57.013,-59.121c2.941,-2.406 5.123,-2.896 6.594,-3.036l2.269,0.055l2.136,0.573l3.332,2.176c15.005,14.134 35.124,54.385 103.716,83.906c73.585,31.67 141.895,11.593 158.716,5.498c81.494,-29.526 103.67,-77.267 117.765,-89.88l2.345,-1.53l2.49,-0.732c1.758,-0.261 4.202,-0.077 6.969,1.43c4.433,2.414 13.207,11.876 20.608,19.181c0.066,0.065 0.13,0.131 0.194,0.198Zm-482.76,64.088c35.877,44.636 134.839,127.668 275.153,121.028c15.65,-0.741 104.79,-4.923 185.181,-63.743c5.517,-4.037 38.385,-28.045 62.411,-57.771c-1.356,-1.21 -3.161,-2.857 -4.746,-4.423c-14.984,-14.801 -44.861,-45.166 -47.206,-47.58l-0.019,-0.019c-4.092,-4.037 -10.096,-9.857 -13.706,-13.347c-15.206,17.453 -41.655,60.745 -119.003,88.768c-18.122,6.566 -91.712,28.258 -170.983,-5.859c-65.483,-28.183 -88.918,-65.366 -104.421,-82.774c-6.514,6.562 -20.343,21.762 -52.083,54.512c-4.655,4.804 -8.374,8.803 -10.578,11.206Z" style="fill:#daa520;"/><path d="M756.513,783.233c-8.492,-8.382 -18.678,-20.15 -21.001,-18.07c-14.394,12.881 -37.258,61.352 -120.484,91.505c-17.472,6.33 -88.422,27.215 -164.85,-5.679c-70.073,-30.158 -90.806,-71.055 -106.136,-85.494c-2.642,-2.489 -2.992,0.63 -59.647,59.088c-14.041,14.488 -15.918,16.007 -13.927,18.61c34.233,44.748 137.197,134.736 284.88,127.748c16.034,-0.759 107.346,-5.08 189.708,-65.341c5.74,-4.2 40.327,-29.506 65.051,-60.605c5.068,-6.375 0.467,-7.41 -6.451,-14.243c-15.329,-15.142 -46.309,-46.638 -47.144,-47.518Z" style="fill:#081534;"/><g><path id="Gemini_Generated_Image_1xglpo1xglpo1xgl.png" d="M276.224,448.522c-25.863,-16.635 -78.991,-54.813 -86.603,-87.309c-4.705,-20.087 1.776,-37.378 4.826,-32.263c16.07,26.943 18.871,31.658 61.402,70.234c33.096,30.018 -9.841,-8.175 -33.553,-46.025c-5.209,-8.314 -27.807,-42.745 -7.894,-73.676c7.157,-11.117 0.442,39.818 85.525,109.453c24.138,19.755 26.299,20.047 26.968,17.561c0.248,-0.923 3.741,-13.904 6.234,-10.19c27.199,40.528 53.664,41.633 92.095,63.446c30.578,17.355 -1.797,31.437 10.75,54.445c11.71,21.472 44.354,31.91 47.945,29.233c0.355,-0.265 5.623,-4.192 2.264,-5.048c-0.769,-0.196 -13.733,-0.154 -5.809,-5.332c8.294,-5.42 13.704,-12.23 11.379,-12.667c-7.426,-1.396 -11.919,-0.351 -8.508,-3.528c16.7,-15.55 17.514,-17.101 15.689,-17.57c-7.523,-1.934 -6.956,-3.272 -6.578,-3.745c1.825,-2.279 22.079,-12.494 19.396,-15.718c-0.98,-1.178 -11.912,-14.316 -6.205,-18.128c2.627,-1.754 2.392,5.496 39.257,4.216c21.795,-0.757 38.113,-1.072 47.481,14.58c1.318,2.203 28.88,7.591 24.059,31.516c-0.182,0.905 -5.07,15.553 -8.756,8.093c-3.724,-7.537 -41.195,-5.565 -21.75,16.292c6.733,7.568 10.563,11.404 29.657,2.281c49.551,-23.675 24.501,-53.789 25.441,-61.404c3.695,-29.918 68.852,-24.332 105.615,-80.834c3.08,-4.734 5.563,6.816 5.722,7.557c1.116,5.193 2.407,4.313 2.732,4.091c79.3,-54.078 100.097,-109.157 104.621,-121.136c2.892,-7.659 1.929,-9.511 4.768,-8.898c1.721,0.371 10.989,16.747 9.575,33.725c-3.726,44.718 -63.871,95.067 -51.26,88.743c0.275,-0.138 30.37,-25.697 45.67,-45.23c14.363,-18.337 18.402,-31.401 20.532,-26.475c23.604,54.593 -70.3,106.251 -68.383,109.017c0.708,1.021 31.763,-14.833 60.352,-39.828c0.867,-0.758 13.661,-13.795 14.223,-9.813c8.587,60.779 -81.354,78.431 -66.727,81.184c6.164,1.16 56.132,-25.469 60.862,-27.989c9.441,-5.031 1.618,18.851 -5.018,27.655c-23.6,31.313 -109.352,36.373 -79.579,36.732c11.676,0.141 68.471,-14.734 74.363,-16.277c6.393,-1.674 -1.927,25.655 -24.846,34.724c-21.917,8.673 -53.364,7.391 -42.699,10.486c3.455,1.003 49.309,-1.789 49.753,-0.189c0.597,2.148 -8.039,20.56 -30.631,23.309c-13.402,1.631 -30.116,-0.125 -16.937,2.827c1.797,0.402 1.779,0.262 22.545,4.646c6.785,1.432 -1.736,7.752 -3.702,9.309c-25.487,20.184 -74.676,-6.669 -59.979,4.558c1.613,1.233 41.003,13.083 39.848,16.148c-0.262,0.695 -15.05,16.419 -39.111,16.048c-19.932,-0.307 -50.672,-15.943 -30.301,-3.713c13.504,8.107 26.707,14.16 23.367,16.803c-28.631,22.653 -67.225,-5.263 -71.921,-8.66c-2.238,-1.619 -4.087,0.076 -1.962,1.926c20.27,17.649 29.927,21.874 24.349,24.517c-35.56,16.853 -57.851,-39.505 -53.827,-20.963c0.757,3.485 24.395,28.595 23.291,30.15c-1.914,2.696 -18.168,4.687 -27.439,-4.637c-8.29,-8.337 -23.151,-30.672 -14.698,-14.36c10.705,20.658 17.842,25.634 8.731,25.803c-25.597,0.474 -32.331,-41.866 -32.357,-27.927c-0.006,2.978 8.35,21.626 9.174,23.465c2.146,4.79 -17.821,5.413 -26.265,-19.017c-3.298,-9.542 -8.195,9.625 -7.461,11.085c11.385,22.658 11.378,23.449 7.322,48.581c-1.17,7.247 9.961,-5.837 16.522,3.669c3.072,4.451 4.026,2.786 9.378,3.387c6.917,0.777 9.277,13.985 1.986,21.911c-5.637,6.127 -0.965,6.737 5.289,12.141c18.19,15.72 28.908,17.189 18.562,22.845c-9.89,5.407 -14.317,1.323 -14.887,9.205c-0.132,7.128 1.407,13.289 -5.237,13.759c-12.863,0.91 -15.618,-1.681 -15.934,0.806c-2.176,17.121 -0.37,24.025 -14.383,21.01c-3.192,-0.687 -10.907,-4.092 -11.55,-1.938c-0.615,2.059 -7.744,25.947 -13.174,23.412c-12.915,-6.027 -15.451,-12.315 -19.038,-4.075c-0.531,1.22 -16.019,27.672 -24.717,19.85c-20.589,-18.518 -15.763,-26.727 -20.36,-24.058c-5.252,3.05 -15.653,12.969 -19.92,6.038c-7.216,-11.72 -8.636,-22.854 -11.682,-21.942c-11.664,3.492 -17.811,7.414 -20.274,-1.381c-3.387,-12.093 -1.919,-18.544 -4.475,-18.475c-4.692,0.126 -18.606,3.842 -19.198,-4.019c-0.494,-6.556 0.909,-12.952 -2.194,-13.727c-3.873,-0.967 -22.489,-4.699 -15.096,-10.417c29.571,-22.871 30.745,-24.241 28.691,-26.603c-0.147,-0.169 -9.19,-6.268 -7.035,-17.929c2.011,-10.876 10.885,-2.208 14.977,-8.851c6.621,-10.75 17.239,2.362 16.569,-4.62c-2.223,-23.164 -4.238,-23.946 6.561,-46.267c2.8,-5.788 -3.686,-19.392 -4.936,-16.458c-1.735,4.069 -4.596,22.891 -25.19,24.841c-6.257,0.593 11.766,-28.532 5.62,-27.496c-2.238,0.377 -9.414,32.129 -33.646,28.941c-5.591,-0.736 8.492,-17.216 12.452,-27.689c7.823,-20.693 -9.042,20.37 -28.354,23.16c-7.589,1.097 -16.459,-1.429 -14.351,-3.921c1.91,-2.258 30.297,-35.814 21.321,-30.202c-0.673,0.421 -27.014,38.863 -54.024,22.026c-3.298,-2.056 17.171,-14.903 26.412,-23.805c21.552,-20.765 -19.713,19.55 -50.115,15.586c-8.779,-1.145 -30.292,-8.704 -23.397,-12.483c1.587,-0.87 47.408,-25.986 17.661,-14.142c-36.736,14.627 -70.404,-10.412 -63.082,-13.544c5.075,-2.171 63.535,-20.517 27.077,-13.574c-9.057,1.725 -37.897,9.518 -54.733,-11.209c-3.933,-4.842 49.824,-8.648 16.484,-9.617c-33.35,-0.97 -41.688,-25.258 -37.112,-25.078c46.8,1.841 51.228,1.525 48.33,-1.036c-2.903,-2.565 -57.895,3.044 -69.669,-38.35c-1.034,-3.636 -1.477,-5.791 2.255,-4.707c5.935,1.725 67.143,19.518 75.541,16.199c6.151,-2.431 -40.411,-7.853 -67.427,-24.299c-22.903,-13.943 -26.653,-44.719 -19.621,-40.765c4.626,2.6 40.644,22.849 59.883,28.529c52.188,15.407 -54.2,-13.025 -64.199,-60.464c-2.737,-12.986 -1.522,-24.154 1.996,-21.003c5.078,4.549 34.626,31.021 68.992,50.029c8.057,4.456 14.463,8.067 19.423,10.909c15.868,10.206 21.472,12.303 0,0Z" style="fill:#daa520;"/><path d="M626.216,532.749c34.91,-22.528 13.861,-48.488 14.725,-55.481c3.695,-29.918 68.852,-24.332 105.615,-80.834c3.08,-4.734 5.563,6.816 5.722,7.557c1.116,5.193 2.407,4.313 2.732,4.091c25.169,-17.164 44.445,-34.429 59.178,-50.385l-0,-0.459c35.122,-37.563 43.23,-65.897 47.187,-75.623c0.819,-2.884 0.989,-3.817 2.477,-3.659c0.095,-0.004 0.191,0.01 0.289,0.041c0.082,0.014 0.168,0.031 0.258,0.051c1.721,0.371 10.989,16.747 9.575,33.725c-2.254,27.052 -25.155,56.164 -40.105,73.544c-4.128,4.939 -8.036,9.397 -11.372,13.121c-1.931,2.417 -2.165,3.258 0.149,2.111l1.506,-1.366c20.154,-18.279 31.386,-28.956 39.337,-37.997c1.746,-2.005 3.392,-3.982 4.895,-5.901c1.081,-1.38 2.103,-2.73 3.071,-4.045c4.574,-6.319 8.543,-12.977 14.099,-22.291c0.449,-0.752 0.972,-1.02 1.522,-0.865c0.776,-0.583 1.357,-0.39 1.84,0.726c5.458,12.624 4.633,25.092 0.162,36.834c-1.658,4.722 -4.184,9.536 -7.362,14.361c-10.61,16.565 -26.941,30.957 -40.067,41.253c-6.866,5.558 -13.761,10.714 -20.181,15.283c-0.733,0.658 -1.069,1.092 -0.935,1.286c0.272,0.393 5.033,-1.71 12.415,-5.869c30.067,-18.233 54.654,-40.261 59.245,-44.374c0.769,-0.689 1.428,-0.693 1.959,-0.145c0.53,-0.054 0.874,0.164 0.956,0.747c0.167,1.184 0.297,2.352 0.391,3.503c0.136,1.192 0.2,2.576 0.186,4.108c0.04,4.805 -0.554,9.313 -1.664,13.542c-0.683,2.93 -1.732,5.786 -3.085,8.563c-8.024,17.345 -24.795,29.227 -39.179,37.193c-9.248,5.608 -18.237,10.056 -24.931,13.146c-0.232,0.511 0.237,0.88 1.555,1.128c0.119,0.022 0.254,0.034 0.405,0.036l1.203,-0.356c19.24,-5.68 55.258,-25.928 59.883,-28.529c1.022,-0.575 1.816,-0.416 2.357,0.319c4.301,1.86 -2.292,20.615 -8.005,28.195c-2.78,3.688 -6.421,7.012 -10.635,10.006c-1.064,0.787 -2.177,1.538 -3.339,2.245l-0.561,0.338c-32.57,20.159 -90.269,23.838 -65.044,24.142c9.044,0.109 45.164,-8.793 63.723,-13.527c5.092,-1.427 8.754,-2.492 9.996,-2.853c3.082,-0.896 3.317,0.418 2.722,2.951c-0.264,7.042 -9.257,24.885 -26.924,31.876c-3.781,1.496 -7.846,2.696 -11.93,3.674c-4.369,1.135 -8.646,1.891 -12.568,2.419c-14.372,2.22 -25.102,2.39 -18.201,4.393c0.396,0.115 1.348,0.18 2.724,0.207l0,-0.391c5.698,0.355 18.613,0.004 45.093,-1.037c0.491,-0.019 0.834,0.244 1.012,0.73c0.566,0.076 0.889,0.175 0.924,0.303c0.252,0.908 -1.145,4.722 -4.549,9.03c-0.894,1.167 -1.957,2.364 -3.2,3.548c-4.945,4.822 -12.416,9.458 -22.883,10.731c-0.486,0.059 -0.976,0.114 -1.47,0.164c-2.184,0.304 -4.498,0.501 -6.948,0.572c-3.631,0.106 -6.229,0.245 -7.981,0.415l-0,-0.285c-5.828,0.123 -8.089,0.269 -0.539,1.96c1.797,0.402 1.779,0.262 22.545,4.646c1.824,0.385 2.542,1.123 2.579,2.028c0.144,0.281 0.115,0.565 -0.12,0.853l-0.035,0.044c-0.843,2.38 -4.854,5.378 -6.125,6.384c-25.487,20.184 -74.676,-6.669 -59.979,4.558c1.613,1.233 41.003,13.083 39.848,16.148c-0.262,0.695 -15.05,16.419 -39.111,16.048c-19.932,-0.307 -50.672,-15.943 -30.301,-3.713c13.504,8.107 26.707,14.16 23.367,16.803c-28.631,22.653 -67.225,-5.263 -71.921,-8.66c-2.238,-1.619 -4.087,0.076 -1.962,1.926c20.27,17.649 29.927,21.874 24.349,24.517c-35.56,16.853 -57.851,-39.505 -53.827,-20.963c0.757,3.485 24.395,28.595 23.291,30.15c-1.914,2.696 -18.168,4.687 -27.439,-4.637c-8.29,-8.337 -23.151,-30.672 -14.698,-14.36c10.705,20.658 17.842,25.634 8.731,25.803c-25.597,0.474 -32.331,-41.866 -32.357,-27.927c-0.006,2.978 8.35,21.626 9.174,23.465c2.146,4.79 -17.821,5.413 -26.265,-19.017c-3.298,-9.542 -8.195,9.625 -7.461,11.085c11.385,22.658 11.378,23.449 7.322,48.581c-1.17,7.247 9.961,-5.837 16.522,3.669c3.072,4.451 4.026,2.786 9.378,3.387c6.917,0.777 9.277,13.985 1.986,21.911c-5.637,6.127 -0.965,6.737 5.289,12.141c18.19,15.72 28.908,17.189 18.562,22.845c-9.89,5.407 -14.317,1.323 -14.887,9.205c-0.132,7.128 1.407,13.289 -5.237,13.759c-12.863,0.91 -15.618,-1.681 -15.934,0.806c-2.176,17.121 -0.37,24.025 -14.383,21.01c-3.192,-0.687 -10.907,-4.092 -11.55,-1.938c-0.615,2.059 -7.744,25.947 -13.174,23.412c-12.915,-6.027 -15.451,-12.315 -19.038,-4.075c-0.458,1.052 -12.029,20.853 -20.785,21.286c-8.756,-0.434 -20.327,-20.234 -20.785,-21.286c-3.587,-8.24 -6.124,-1.953 -19.038,4.075c-5.43,2.534 -12.559,-21.353 -13.174,-23.412c-0.643,-2.153 -8.358,1.252 -11.55,1.938c-14.013,3.015 -12.207,-3.889 -14.383,-21.01c-0.316,-2.488 -3.071,0.104 -15.934,-0.806c-6.643,-0.47 -5.104,-6.631 -5.237,-13.759c-0.57,-7.883 -4.997,-3.799 -14.887,-9.205c-10.346,-5.656 0.373,-7.125 18.562,-22.845c6.254,-5.405 10.926,-6.014 5.289,-12.141c-7.292,-7.926 -4.931,-21.134 1.986,-21.911c5.351,-0.601 6.306,1.064 9.378,-3.387c6.561,-9.507 17.692,3.577 16.522,-3.669c-4.057,-25.132 -4.063,-25.922 7.322,-48.581c0.734,-1.46 -4.163,-20.627 -7.461,-11.085c-8.444,24.431 -28.411,23.807 -26.265,19.017c0.824,-1.839 9.18,-20.488 9.174,-23.465c-0.026,-13.939 -6.761,28.4 -32.357,27.927c-9.112,-0.169 -1.974,-5.144 8.731,-25.803c8.452,-16.312 -6.408,6.023 -14.698,14.36c-9.271,9.324 -25.525,7.333 -27.439,4.637c-1.104,-1.555 22.535,-26.664 23.291,-30.15c4.025,-18.542 -18.266,37.816 -53.827,20.963c-5.578,-2.644 4.079,-6.868 24.349,-24.517c2.125,-1.85 0.277,-3.545 -1.962,-1.926c-4.696,3.396 -43.289,31.313 -71.921,8.66c-3.341,-2.643 9.863,-8.697 23.367,-16.803c20.371,-12.229 -10.369,3.406 -30.301,3.713c-24.06,0.371 -38.849,-15.353 -39.111,-16.048c-1.155,-3.066 38.235,-14.916 39.848,-16.148c14.697,-11.227 -34.492,15.625 -59.979,-4.558c-1.271,-1.007 -5.282,-4.004 -6.125,-6.384l-0.035,-0.044c-0.234,-0.288 -0.264,-0.573 -0.12,-0.853c0.036,-0.904 0.754,-1.643 2.579,-2.028c20.765,-4.383 20.748,-4.243 22.545,-4.646c7.55,-1.691 5.29,-1.837 -0.539,-1.96l0,0.285c-1.752,-0.171 -4.35,-0.31 -7.981,-0.415c-2.449,-0.071 -4.763,-0.268 -6.948,-0.572c-0.493,-0.051 -0.984,-0.105 -1.47,-0.164c-10.467,-1.273 -17.938,-5.909 -22.883,-10.731c-1.243,-1.184 -2.306,-2.381 -3.2,-3.548c-3.404,-4.309 -4.801,-8.122 -4.549,-9.03c0.035,-0.127 0.358,-0.227 0.924,-0.303c0.179,-0.486 0.521,-0.749 1.012,-0.73c26.479,1.042 39.394,1.393 45.093,1.037l-0,0.391c1.376,-0.028 2.328,-0.093 2.724,-0.207c6.901,-2.003 -3.829,-2.173 -18.201,-4.393c-3.922,-0.529 -8.199,-1.284 -12.568,-2.419c-4.084,-0.977 -8.149,-2.177 -11.93,-3.674c-17.668,-6.991 -26.66,-24.834 -26.924,-31.876c-0.594,-2.533 -0.359,-3.847 2.722,-2.951c1.242,0.361 4.904,1.426 9.996,2.853c18.559,4.735 54.679,13.636 63.723,13.527c25.225,-0.304 -32.473,-3.983 -65.044,-24.142l-0.561,-0.338c-1.162,-0.707 -2.275,-1.458 -3.339,-2.245c-4.213,-2.995 -7.855,-6.319 -10.635,-10.006c-5.713,-7.58 -12.305,-26.335 -8.005,-28.195c0.541,-0.734 1.335,-0.893 2.357,-0.319c4.626,2.6 40.644,22.849 59.883,28.529l1.203,0.356c0.151,-0.002 0.286,-0.014 0.405,-0.036c1.319,-0.248 1.788,-0.617 1.555,-1.128c-6.695,-3.091 -15.684,-7.539 -24.931,-13.146c-14.384,-7.966 -31.154,-19.848 -39.179,-37.193c-1.354,-2.777 -2.402,-5.633 -3.085,-8.563c-1.109,-4.229 -1.704,-8.737 -1.664,-13.542c-0.014,-1.532 0.05,-2.916 0.186,-4.108c0.094,-1.152 0.224,-2.319 0.391,-3.503c0.082,-0.582 0.426,-0.801 0.956,-0.747c0.532,-0.549 1.19,-0.544 1.959,0.145c4.59,4.113 29.178,26.14 59.245,44.374c7.382,4.159 12.143,6.262 12.415,5.869c0.134,-0.194 -0.202,-0.628 -0.935,-1.286c-6.42,-4.568 -13.315,-9.725 -20.181,-15.283c-13.126,-10.297 -29.457,-24.689 -40.067,-41.253c-3.178,-4.825 -5.704,-9.639 -7.362,-14.361c-4.471,-11.742 -5.296,-24.21 0.162,-36.834c0.483,-1.116 1.063,-1.309 1.84,-0.726c0.551,-0.155 1.074,0.112 1.522,0.865c5.556,9.314 9.525,15.972 14.099,22.291c0.968,1.315 1.99,2.665 3.071,4.045c1.503,1.919 3.149,3.896 4.895,5.901c7.951,9.041 19.183,19.717 39.337,37.997l1.506,1.366c2.314,1.147 2.08,0.306 0.149,-2.111c-3.336,-3.724 -7.244,-8.182 -11.372,-13.121c-14.951,-17.38 -37.852,-46.493 -40.105,-73.544c-1.415,-16.977 7.854,-33.353 9.575,-33.725c0.09,-0.019 0.176,-0.036 0.258,-0.051c0.098,-0.031 0.194,-0.045 0.289,-0.041c1.488,-0.158 1.658,0.775 2.477,3.659c3.957,9.726 12.066,38.06 47.187,75.623l0,0.459c14.733,15.956 34.008,33.221 59.178,50.385c0.325,0.222 1.616,1.102 2.732,-4.091c0.159,-0.741 2.642,-12.292 5.722,-7.557c36.762,56.503 101.919,50.916 105.615,80.834c0.941,7.615 -24.11,37.728 25.441,61.404c4.967,2.373 8.901,3.869 12.121,4.651l-0.301,-0.372c3.872,0.992 6.683,1.163 7.6,0.48c0.355,-0.265 5.623,-4.192 2.264,-5.048c-0.769,-0.196 -13.733,-0.154 -5.809,-5.332c8.294,-5.42 13.704,-12.23 11.379,-12.667c-7.426,-1.396 -11.919,-0.351 -8.508,-3.528c16.7,-15.55 17.514,-17.101 15.689,-17.57c-7.523,-1.934 -6.956,-3.272 -6.578,-3.745c1.825,-2.279 22.079,-12.494 19.396,-15.718c-0.98,-1.178 -11.912,-14.316 -6.205,-18.128c2.627,-1.754 2.392,5.496 39.257,4.216c21.795,-0.757 38.113,-1.072 47.481,14.58c1.318,2.203 28.88,7.591 24.059,31.516c-0.182,0.905 -5.07,15.553 -8.756,8.093c-3.724,-7.537 -41.195,-5.565 -21.75,16.292c3.723,4.185 6.559,7.229 11.579,7.571c4.058,0.277 9.543,-1.212 18.078,-5.29c4.053,-1.937 7.607,-3.916 10.717,-5.923Zm-339.545,26.381c11.683,6.794 17.274,11.588 59.673,-5.088c2.992,-1.177 -1.317,-4.495 -3.62,-4.006c-2.912,0.618 -53.008,11.252 -36.851,5.181c6.724,-2.527 6.733,-2.163 24.485,-8.276c26.469,-9.114 -9.39,-0.549 -10.183,-0.359c-17.534,4.188 -17.489,3.825 -34.915,8.018c-0.369,0.089 -3.462,0.833 1.41,4.53Zm199.206,158.984c1.572,-8.794 -1.757,-7.74 -2.36,-7.549c-5.214,1.65 -2.194,19.38 2.36,7.549Zm43.422,-52.605c8.158,3.878 8.07,-11.32 2.312,-8.734c-3.383,1.519 -6.838,0.711 -6.915,2.726c-0.068,1.769 4.155,5.602 4.604,6.008Zm-44.409,12.029c-0.037,1.117 -0.167,2.23 -0.204,3.348c-0.131,3.951 1.705,2.025 1.839,1.864c0.023,-0.027 8.394,-13.721 10.515,-13.457c0.207,0.026 9.534,35.592 8.837,12.74c-0.322,-10.567 4.328,-11.307 -0.389,-17.695c-3.285,-4.449 -10.556,-17.309 -18.761,3.036c-1.982,4.914 -1.404,4.931 -1.838,10.164Zm33.718,106.941c3.461,-26.012 5.993,-36.589 2.26,-31.319c-0.049,0.069 -12.256,40.951 -13.119,42.106c-6.895,9.226 14.948,-72.093 6.514,-54.414c-0.42,0.88 -15.52,45.828 -16.778,50.432c-0.064,0.236 2.098,20.942 9.253,16.296c11.57,-7.513 9.874,-9.285 11.869,-23.102Zm-67.493,-68.735c0.183,0.448 8.793,15.558 5.976,-0.959c-0.957,-5.609 -5.247,-4.67 -5.976,0.959Zm-98.37,-196.656c0.582,0.277 4.183,6.175 37.325,3.254c23.11,-2.037 -37.539,-2.088 -32.425,-7.717c0.144,-0.159 33.336,1.683 23.576,-1.621c-1.763,-0.597 -27.136,-3.693 -29.5,-3.982c-16.511,-2.015 -0.054,9.183 1.025,10.067Zm187.255,304.936c1.709,-0.042 2.743,-1.269 3.166,-1.77c13.84,-16.419 10.701,-18.532 6.992,-47.909c-0.184,-1.451 -2.262,-27.98 -5.131,-17.948c-1.52,5.315 -0.085,37.932 -2.782,49.334c-0.855,3.616 -1.596,5.355 -2.244,5.649c-0.648,-0.293 -1.389,-2.033 -2.244,-5.649c-2.698,-11.402 -1.262,-44.019 -2.782,-49.334c-2.869,-10.032 -4.948,16.496 -5.131,17.948c-3.709,29.377 -6.848,31.489 6.992,47.909c0.423,0.502 1.457,1.729 3.166,1.77Zm-283.635,-455.677c-3.046,-3.3 -6.531,-7.234 -10.402,-11.976c-8.502,-10.412 -11.128,-15.74 -10.764,-11.048c3.847,5.837 9.93,14.421 15.968,22.325c4.334,5.283 8.065,9.663 8.875,10.613c2.462,2.57 4.338,4.401 5.771,5.683l-0,1.006c1.688,1.59 3.01,2.526 3.804,2.562c0.721,0.033 4.029,-1.338 -3.12,-8.467c-4.487,-4.611 -7.612,-7.913 -10.131,-10.699Zm156.036,234.784c-6.702,7.397 11.002,7.447 20.188,-1.2c11.291,-10.629 29.092,-38.608 12.169,-19.346c-16.747,19.062 -22.896,19.192 -20.706,16.27c0.033,-0.044 32.34,-37.298 4.049,-10.442c-0.739,0.702 -6.874,6.526 -9.333,8.677c-3.831,3.351 -6.106,5.793 -6.368,6.041Zm105.19,117.206c-0.089,-11.452 -0.492,-11.455 2.579,-22.583c2.33,-8.447 -14.525,11.989 -5.93,25.571c2.452,3.875 3.305,-2.632 3.352,-2.988Zm-145.591,-109.23c1.133,-0.755 14.203,-9.474 13.132,-10.824c-0.308,-0.389 -3.943,-1.671 -5.378,-0.664c-2.062,1.447 -25.576,17.953 -25.619,18.303c-0.186,1.518 1.491,2.678 17.865,-6.815Zm451.635,-242.761c-2.518,2.787 -5.644,6.088 -10.131,10.699c-7.149,7.13 -3.841,8.5 -3.12,8.467c0.794,-0.036 2.116,-0.972 3.804,-2.562l0,-1.006c1.432,-1.283 3.309,-3.114 5.771,-5.683c0.81,-0.951 4.541,-5.331 8.875,-10.613c6.038,-7.904 12.121,-16.488 15.968,-22.325c0.364,-4.692 -2.262,0.636 -10.764,11.048c-3.872,4.741 -7.356,8.675 -10.402,11.976Zm-353.515,348.588c-0.074,-0.636 -1.041,-8.964 -5.734,-5.588c-1.436,1.033 3.914,20.386 5.734,5.588Zm3.137,39.342c19.416,-32.136 -11.826,5.939 -13.516,6.558c-6.105,2.237 14.84,-22.793 15.882,-25.637c2.819,-7.695 -12.639,9.129 -13.554,10.125c-18.679,20.329 -11.105,24.076 -9.05,24.041c13.678,-0.237 12.621,-3.641 20.238,-15.087Zm-209.985,-301.146c-0.178,1.69 2.117,6.985 2.351,7.524l0.189,0.317l0,0.154c2.748,4.852 6.448,9.968 7.063,10.819c4.032,4.201 4.088,13.224 62.026,22.63c23.007,3.735 -59.698,-21.871 -50.596,-25.842c2.315,-1.01 2.016,1.513 30.241,9.062c1.888,0.505 17.556,5.922 15.603,2.016c-2.251,-4.501 -4.419,-1.475 -58.1,-24.126c-5.69,-2.401 -7.926,-2.785 -8.777,-2.554Zm97.487,80.562c-10.839,2.103 -15.48,0.901 -12.082,4.358c12.365,12.581 26.138,8.1 53.54,0.864c29.357,-7.752 -42.456,5.711 -38.072,-0.669c0.434,-0.632 40.164,-7.548 27.106,-8.097c-2.454,-0.103 -2.235,0.297 -30.491,3.545Zm131.726,34.905l-1.876,-4.615c-4.405,-15.592 -9.318,17.255 0.896,23.373c2.671,1.6 4.223,-10.02 6.195,-3.961c5.491,16.877 10.428,13.542 10.541,12.254c1.334,-15.126 5.964,-0.551 6.019,-0.073c0.924,8.012 -2.532,7.157 -10.605,6.437c-3.115,-0.278 0.461,14.229 13.665,20.215c7.564,3.429 -2.153,-6.193 -2.462,-10.841c-0.072,-1.083 7.482,-14.45 7.875,-14.39c5.521,0.834 -1.787,15 -1.647,15.271c7.003,13.571 20.716,-8.604 6.875,-28.7c-1.575,-2.287 -7.172,-11.734 -9.09,-4.66c-3.507,12.938 -12.94,-10.95 -13.476,-12.308c-2.498,-6.325 -5.586,5.983 -5.757,6.666c-1.818,7.245 -5.164,-1.402 -7.154,-4.669Zm-38.311,173.334c8.157,-8.878 10.031,-8.76 8.578,-10.986c-0.945,-1.448 -3.692,0.834 -3.943,1.043c-20.089,16.691 -21.78,19.906 -18.175,20.191c6.15,0.486 13.181,-9.872 13.54,-10.248Zm18.27,38.217c0.138,0.776 1.72,9.686 4.196,8.909c17.317,-5.434 13.429,-10.383 22.992,-34.598c0.229,-0.579 10.727,-27.163 -0.078,-7.781c-17.109,30.689 -19.283,33.123 -19.806,30.276c-0.267,-1.453 19.92,-39.922 8.527,-29.007c-1.183,1.134 -0.726,1.302 -11.007,17.273c-4.938,7.671 -4.838,7.825 -4.824,14.928Zm-17.253,-190.967c-1.753,0.548 -17.46,22.018 -15.483,22.956c15.624,7.409 32.906,-41.233 22.47,-24.24c-0.851,1.386 -19.473,31.708 -13.046,15.6c0.749,-1.877 5.393,-8.93 6.621,-13.739l-0.562,-0.577Zm361.537,-136.051c-0.851,-0.232 -3.088,0.153 -8.777,2.554c-53.681,22.651 -55.849,19.625 -58.1,24.126c-1.953,3.907 13.714,-1.511 15.603,-2.016c28.225,-7.548 27.927,-10.072 30.241,-9.062c9.101,3.971 -73.603,29.577 -50.596,25.842c57.938,-9.406 57.994,-18.429 62.026,-22.63c0.615,-0.851 4.315,-5.967 7.063,-10.819l0,-0.154l0.189,-0.317c0.234,-0.54 2.529,-5.834 2.351,-7.524Zm-325.124,250.471c-0.349,-0.743 -4.503,-9.59 -10.217,-0.964c-3.101,4.681 4.636,-0.104 7.274,4.69c3.875,7.042 2.975,-3.348 2.942,-3.726Zm42.897,-64.021c0.006,-9.234 0.196,-9.268 -0.219,-10.308c-0.529,-1.326 -1.57,-1.737 -15.923,8.056c-3.838,2.618 10.766,19.51 16.141,2.253Zm-31.588,91.093c-0.204,-1.059 -1.496,-7.756 -9.471,-9.594c-0.604,-0.139 -7.683,2.295 2.329,7.392c6.574,3.347 -9.339,14.19 -3.339,12.982c7.886,-1.587 10.154,-9.623 10.481,-10.781Zm-5.747,-42.853c-2.257,-4.328 -1.856,-5.713 -3.801,-4.877c-0.842,0.362 -4.635,5.799 -5.004,6.328c-1.912,2.74 2.376,2.279 7.129,6.845c9.441,9.068 2.086,-6.931 1.676,-8.296Zm-28.471,-77.618c7.705,-16.044 -5.519,0.862 -5.365,3.42c0.228,3.775 5.069,-3.005 5.365,-3.42Zm27.462,-7.873c-1.166,-5.589 -2.656,-4.506 -6.966,-7.996c-2.301,-1.863 -3.543,-4.195 -3.587,-4.239c-2.294,-2.316 -5.285,10.807 11.477,23.223c4.215,3.122 0.842,-3.466 -0.924,-10.988Zm92.241,101.272c-0.033,0.378 -0.933,10.768 2.942,3.726c2.638,-4.794 10.376,-0.009 7.274,-4.69c-5.714,-8.625 -9.868,0.221 -10.217,0.964Zm130.845,-169.909c-28.256,-3.248 -28.038,-3.648 -30.491,-3.545c-13.058,0.55 26.672,7.466 27.106,8.097c4.384,6.381 -67.429,-7.083 -38.072,0.669c27.402,7.236 41.175,11.717 53.54,-0.864c3.398,-3.457 -1.243,-2.255 -12.082,-4.358Zm-55.541,-51.745c0.857,18.649 0.703,19.718 0.458,21.414c-4.639,32.105 3.715,-15.449 14.871,-26.708c5.363,-5.413 65.204,-43.662 56.985,-48.473c-3.306,-1.936 -1.399,3.979 -40.185,26.054c-21.419,12.191 -30.108,15.487 -32.129,27.714Zm-53.82,232.987c1.82,14.797 7.17,-4.556 5.734,-5.588c-4.694,-3.376 -5.661,4.952 -5.734,5.588Zm-320.089,-319.504c-11.809,-10.907 0.147,12.113 0.629,13.039c0.506,0.973 0.756,0.562 3.891,0.645c1.448,0.038 42.344,31.925 38.076,23.411c-6.149,-12.266 -8.754,-10.068 -42.596,-37.096Zm53.276,89.734c1.457,1.871 0.893,10.389 40.215,18.321c15.521,3.131 -3.11,-2.924 -17.928,-8.234c-1.033,-0.37 -21.033,-7.536 -11.352,-7.706c0.15,-0.003 25.071,8.619 19.892,3.74c-0.405,-0.382 -30.907,-12.721 -32.118,-12.16c-1.38,0.639 1.072,5.596 1.292,6.039Zm98.868,60.721c-10.666,-6.818 -11.365,-5.814 -20.073,-14.843c-0.277,-0.287 -6.921,-7.177 -4.632,-1.839c3.704,8.634 21.974,17.454 16.879,18.31c-0.232,0.039 -6.42,1.08 -1.136,2.711c33.65,10.388 30.717,18.064 33.483,16.901c5.257,-2.211 -22.334,-19.842 -24.521,-21.24Zm-93.514,32.935c-27.998,14.158 -46.796,19.786 -31.554,17.628c20.555,-2.91 47.042,-17.967 45.812,-19.751c-0.585,-0.848 -4.771,-2.081 -5.304,-2.14c-1.336,-0.149 -1.23,0.219 -8.954,4.263Zm4.524,-109.287c22.858,15.729 38.003,18.639 32.569,14.703c-0.917,-0.664 -18.306,-8.735 -29.001,-17.164c-14.749,-11.625 5.203,-0.374 5.593,-0.154c33.657,18.979 -16.987,-18.553 -18.24,-14.206c-1.581,5.487 8.031,15.708 9.079,16.822Zm178.868,254.38c-4.246,-3.286 1.512,-38.197 -2.912,-22.246c-5.127,18.485 -5.044,27.887 4.163,36.673c3.683,3.515 2.534,-28.034 0.134,-19.829c-0.125,0.428 -0.103,0.4 -1.385,5.403Zm-2.155,-46.261c6.987,4.761 4.406,-1.73 4.229,-2.062c-0.477,-0.895 -1.024,-0.007 -10.212,-7.503c-0.536,-0.437 -2.509,-0.435 -1.874,1.793c0.493,1.728 7.174,7.211 7.858,7.772Zm-144.145,-107.928c2.826,-1.168 36.269,-14.988 33.741,-17.95c-0.892,-1.046 -43.233,17.212 -43.322,12.358c-0.019,-1.015 48.044,-21.815 25.366,-14.422c-39.552,12.893 -42.937,13.025 -40.447,15.477c8.572,8.444 22.712,5.011 24.662,4.537Zm126.257,76.403c-4.046,-4.038 -4.545,-1.33 -4.582,-0.957c-0.268,2.68 3.948,7.262 4.433,7.79c15.732,17.101 0.447,-6.375 0.149,-6.833Zm-95.47,-164.18c-2.02,-12.227 -10.71,-15.524 -32.129,-27.714c-38.786,-22.075 -36.878,-27.989 -40.185,-26.054c-8.219,4.812 51.622,43.061 56.985,48.473c11.156,11.259 19.51,58.813 14.871,26.708c-0.245,-1.696 -0.4,-2.765 0.458,-21.414Zm-133.027,42.57c10.092,5.662 12.796,9.776 58.388,0.276c21.613,-4.503 -51.972,0.218 -47.276,-5.667c0.458,-0.574 41.952,-2.279 40.3,-5.563c-1.345,-2.672 -59.416,0.031 -60.086,1.241c-1.075,1.94 7.859,9.063 8.673,9.713Zm182.135,180.674c3.593,-0.148 3.141,1.761 6.732,1.738c6.292,-0.04 -7.25,-14.604 -8.635,-2.163c-0.418,3.755 1.814,0.553 1.903,0.425Zm30.498,-81.547c-0.358,-0.332 -7.576,-7.017 -5.72,-2.129c7.085,18.656 21.097,10.721 16.602,8.178c-5.52,-3.122 -5.776,-2.459 -10.882,-6.049Zm294.302,-228.214c-33.842,27.028 -36.447,24.83 -42.596,37.096c-4.268,8.514 36.629,-23.373 38.076,-23.411c3.135,-0.083 3.385,0.328 3.891,-0.645c0.481,-0.927 12.438,-23.947 0.629,-13.039Zm-95.723,174.294c1.949,0.473 16.09,3.907 24.662,-4.537c2.49,-2.453 -0.895,-2.584 -40.447,-15.477c-22.678,-7.393 25.384,13.407 25.366,14.422c-0.089,4.855 -42.429,-13.403 -43.322,-12.358c-2.528,2.962 30.916,16.783 33.741,17.95Zm-79.895,135.467c0.089,0.128 2.321,3.33 1.903,-0.425c-1.385,-12.441 -14.928,2.123 -8.635,2.163c3.591,0.023 3.139,-1.886 6.732,-1.738Zm-46.362,-59.064c-0.298,0.458 -15.583,23.934 0.149,6.833c0.485,-0.528 4.701,-5.11 4.433,-7.79c-0.037,-0.373 -0.536,-3.081 -4.582,0.957Zm-154.689,-63.009c17.37,-14.783 18.372,-15.412 16.895,-16.598c-1.206,-0.967 -9.508,6.333 -20.044,12.429c-32.287,18.68 3.232,-7.437 4.185,-8.214c6.715,-5.477 -6.192,-0.3 -29.761,15.327c-0.234,0.155 -3.124,2.071 -0.163,3.511c15.625,7.594 28.611,-6.247 28.888,-6.454Zm173.975,-14.52c-1.99,3.267 -5.336,11.914 -7.154,4.669c-0.171,-0.683 -3.259,-12.991 -5.757,-6.666c-0.536,1.358 -9.97,25.246 -13.476,12.308c-1.917,-7.074 -7.514,2.372 -9.09,4.66c-13.841,20.096 -0.128,42.271 6.875,28.7c0.14,-0.271 -7.168,-14.437 -1.647,-15.271c0.393,-0.059 7.947,13.307 7.875,14.39c-0.308,4.648 -10.026,14.27 -2.462,10.841c13.205,-5.985 16.78,-20.493 13.665,-20.215c-8.073,0.72 -11.529,1.576 -10.605,-6.437c0.055,-0.478 4.685,-15.053 6.019,0.073c0.114,1.288 5.05,4.623 10.541,-12.254c1.972,-6.06 3.524,5.561 6.195,3.961c10.214,-6.118 5.301,-38.965 0.896,-23.373l-1.876,4.615Zm-305.492,-132.779c3.055,3.801 11.567,14.389 52.875,30.329c39.384,15.197 -10.648,-5.422 -43.787,-31.556c-21.873,-17.249 42.195,22.04 43.028,18.33c1.08,-4.81 -2.144,-3.668 -50.164,-35.784c-4.895,-3.274 -12.818,-9.43 -11.583,-3.852c2.878,12.993 6.851,18.205 9.63,22.534Zm302.07,187.826c-5.106,3.59 -5.362,2.927 -10.882,6.049c-4.495,2.542 9.517,10.478 16.602,-8.178c1.856,-4.888 -5.362,1.797 -5.72,2.129Zm-33.752,54.007c0.683,-0.561 7.365,-6.044 7.858,-7.772c0.635,-2.228 -1.338,-2.23 -1.874,-1.793c-9.189,7.496 -9.736,6.609 -10.212,7.503c-0.177,0.332 -2.758,6.823 4.229,2.062Zm176.914,-160.564c1.079,-0.883 17.535,-12.081 1.025,-10.067c-2.364,0.288 -27.737,3.385 -29.5,3.982c-9.761,3.305 23.431,1.463 23.576,1.621c5.114,5.629 -55.535,5.68 -32.425,7.717c33.142,2.921 36.743,-2.977 37.325,-3.254Zm70.721,-81.269c2.779,-4.328 6.752,-9.54 9.63,-22.534c1.235,-5.578 -6.688,0.578 -11.583,3.852c-48.02,32.117 -51.243,30.975 -50.164,35.784c0.833,3.71 64.9,-35.579 43.028,-18.33c-33.139,26.134 -83.171,46.753 -43.787,31.556c41.308,-15.94 49.82,-26.528 52.875,-30.329Zm-4.647,121.312c4.872,-3.697 1.779,-4.441 1.41,-4.53c-17.426,-4.194 -17.381,-3.83 -34.915,-8.018c-0.793,-0.189 -36.652,-8.755 -10.183,0.359c17.752,6.112 17.761,5.749 24.485,8.276c16.157,6.071 -33.938,-4.563 -36.851,-5.181c-2.303,-0.489 -6.612,2.83 -3.62,4.006c42.4,16.676 47.991,11.882 59.673,5.088Zm-199.206,158.984c4.554,11.831 7.574,-5.899 2.36,-7.549c-0.603,-0.191 -3.932,-1.244 -2.36,7.549Zm-11.288,-28.295c-0.41,1.365 -7.765,17.364 1.676,8.296c4.753,-4.566 9.041,-4.105 7.129,-6.845c-0.369,-0.529 -4.162,-5.966 -5.004,-6.328c-1.945,-0.836 -1.544,0.549 -3.801,4.877Zm125.165,-78.713c16.373,9.493 18.051,8.334 17.865,6.815c-0.043,-0.35 -23.557,-16.856 -25.619,-18.303c-1.435,-1.008 -5.07,0.275 -5.378,0.664c-1.071,1.35 12,10.069 13.132,10.824Zm-69.936,-63.222c-2.187,1.397 -29.778,19.028 -24.521,21.24c2.766,1.163 -0.166,-6.513 33.483,-16.901c5.284,-1.631 -0.904,-2.672 -1.136,-2.711c-5.096,-0.857 13.175,-9.676 16.879,-18.31c2.29,-5.337 -4.355,1.552 -4.632,1.839c-8.708,9.029 -9.407,8.025 -20.073,14.843Zm88.99,-76.353c1.048,-1.114 10.66,-11.335 9.079,-16.822c-1.253,-4.347 -51.897,33.185 -18.24,14.206c0.39,-0.22 20.342,-11.47 5.593,0.154c-10.694,8.429 -28.084,16.5 -29.001,17.164c-5.434,3.936 9.711,1.026 32.569,-14.703Zm-60.595,113.586c0.277,0.207 13.263,14.049 28.888,6.454c2.961,-1.439 0.071,-3.355 -0.163,-3.511c-23.569,-15.627 -36.476,-20.805 -29.761,-15.327c0.953,0.778 36.473,26.895 4.185,8.214c-10.535,-6.095 -18.838,-13.396 -20.044,-12.429c-1.478,1.186 -0.476,1.815 16.895,16.598Zm70.473,-97.954c0.219,-0.443 2.672,-5.399 1.292,-6.039c-1.212,-0.561 -31.713,11.778 -32.118,12.16c-5.179,4.879 19.742,-3.743 19.892,-3.74c9.681,0.17 -10.319,7.336 -11.352,7.706c-14.819,5.309 -33.449,11.365 -17.928,8.234c39.323,-7.932 38.758,-16.45 40.215,-18.321Zm-108.047,228.58c-0.728,-5.629 -5.019,-6.568 -5.976,-0.959c-2.817,16.516 5.792,1.407 5.976,0.959Zm-22.143,40.533c7.617,11.447 6.56,14.85 20.238,15.087c2.055,0.036 9.628,-3.712 -9.05,-24.041c-0.916,-0.997 -16.374,-17.821 -13.554,-10.125c1.042,2.844 21.988,27.874 15.882,25.637c-1.69,-0.619 -32.932,-38.694 -13.516,-6.558Zm-11.632,-78.739c-0.434,-5.233 0.144,-5.25 -1.838,-10.164c-8.205,-20.346 -15.476,-7.485 -18.761,-3.036c-4.717,6.388 -0.066,7.128 -0.389,17.695c-0.697,22.852 8.63,-12.714 8.837,-12.74c2.121,-0.264 10.492,13.43 10.515,13.457c0.134,0.161 1.969,2.087 1.839,-1.864c-0.037,-1.117 -0.167,-2.23 -0.204,-3.348Zm201.616,-151.021c0.815,-0.649 9.748,-7.773 8.673,-9.713c-0.67,-1.21 -58.741,-3.913 -60.086,-1.241c-1.653,3.284 39.841,4.989 40.3,5.563c4.696,5.884 -68.888,1.164 -47.276,5.667c45.593,9.499 48.296,5.385 58.388,-0.276Zm-171.917,64.664l-0.562,0.577c1.228,4.808 5.873,11.862 6.621,13.739c6.427,16.108 -12.195,-14.213 -13.046,-15.6c-10.437,-16.994 6.845,31.649 22.47,24.24c1.977,-0.938 -13.73,-22.408 -15.483,-22.956Zm-17.253,190.967c0.014,-7.103 0.114,-7.257 -4.824,-14.928c-10.281,-15.97 -9.824,-16.139 -11.007,-17.273c-11.393,-10.915 8.793,27.554 8.527,29.007c-0.522,2.847 -2.697,0.413 -19.806,-30.276c-10.805,-19.382 -0.307,7.202 -0.078,7.781c9.563,24.215 5.675,29.164 22.992,34.598c2.476,0.777 4.058,-8.133 4.196,-8.909Zm124.023,-201.329c-7.724,-4.045 -7.618,-4.413 -8.954,-4.263c-0.533,0.06 -4.719,1.292 -5.304,2.14c-1.231,1.784 25.257,16.841 45.812,19.751c15.242,2.158 -3.555,-3.471 -31.554,-17.628Zm-63.98,22.311c-0.261,-0.248 -2.537,-2.689 -6.368,-6.041c-2.459,-2.151 -8.594,-7.975 -9.333,-8.677c-28.29,-26.856 4.016,10.397 4.049,10.442c2.191,2.921 -3.958,2.792 -20.706,-16.27c-16.923,-19.262 0.877,8.717 12.169,19.346c9.187,8.647 26.89,8.597 20.188,1.2Zm-119.413,122.782c-1.282,-5.003 -1.259,-4.974 -1.385,-5.403c-2.4,-8.205 -3.549,23.344 0.134,19.829c9.207,-8.786 9.29,-18.188 4.163,-36.673c-4.424,-15.95 1.334,18.961 -2.912,22.246Zm35.658,-121.583c-1.766,7.522 -5.14,14.111 -0.924,10.988c16.762,-12.416 13.772,-25.539 11.477,-23.223c-0.044,0.044 -1.286,2.377 -3.587,4.239c-4.31,3.489 -5.8,2.407 -6.966,7.996Zm-38.345,37.251c5.375,17.258 19.979,0.366 16.141,-2.253c-14.352,-9.792 -15.394,-9.382 -15.923,-8.056c-0.415,1.04 -0.225,1.075 -0.219,10.308Zm5.202,23.929c0.448,-0.407 4.671,-4.239 4.604,-6.008c-0.077,-2.015 -3.533,-1.207 -6.915,-2.726c-5.758,-2.586 -5.846,12.612 2.312,8.734Zm26.386,67.164c0.327,1.158 2.594,9.193 10.481,10.781c6.001,1.208 -9.913,-9.636 -3.339,-12.982c10.011,-5.097 2.933,-7.531 2.329,-7.392c-7.975,1.838 -9.267,8.535 -9.471,9.594Zm48.738,11.258c0.359,0.377 7.39,10.734 13.54,10.248c3.605,-0.285 1.913,-3.5 -18.175,-20.191c-0.251,-0.208 -2.998,-2.491 -3.943,-1.043c-1.453,2.225 0.422,2.108 8.578,10.986Zm-64.433,40.547c1.995,13.817 0.298,15.59 11.869,23.102c7.155,4.646 9.317,-16.06 9.253,-16.296c-1.258,-4.604 -16.358,-49.553 -16.778,-50.432c-8.434,-17.68 13.409,63.639 6.514,54.414c-0.863,-1.155 -13.07,-42.037 -13.119,-42.106c-3.732,-5.271 -1.2,5.307 2.26,31.319Zm49.914,-172.276c0.296,0.414 5.136,7.195 5.365,3.42c0.155,-2.558 -13.07,-19.464 -5.365,-3.42Zm-48.897,108.134c0.047,0.356 0.9,6.863 3.352,2.988c8.595,-13.583 -8.261,-34.019 -5.93,-25.571c3.07,11.128 2.668,11.131 2.579,22.583Zm-15.632,-150.959c5.134,-14.006 0.406,-22.384 5.553,-17.388c7.728,7.502 7.859,10.064 9.389,11.846c5.056,5.889 2.534,-16.51 2.372,-17.95c-0.396,-3.519 8.526,1.05 12.949,5.993c9.69,10.829 1.576,-7.012 0.156,-9.237c-8.666,-13.585 -6.632,-14.798 -7.801,-15.552c-3.43,-2.211 -9.811,22.959 -11.269,16.633c-2.118,-9.191 0.943,-17.754 1.462,-19.205c2.344,-6.559 -6.228,2.096 -6.627,2.498c-13.471,13.6 -15.023,40.351 -14.02,21.146c1.185,-22.687 8.117,-23.208 8.275,-25.914c0.447,-7.659 -29.174,19.11 -22.17,9.215c18.053,-25.505 35.316,-16.172 34.189,-22.695c-1.728,-10 15.429,-8.42 17.919,-14.754c3.789,-9.64 -17.928,12.879 -22.968,-3.379c-2.553,-8.236 -9.108,-2.231 -9.492,-6.631c-0.746,-8.54 38.519,7.663 39.27,-1.179c0.956,-11.243 -31.762,-9.944 -34.64,-9.83c-27.197,1.079 -27.039,-0.923 -29.349,-0.5c-1.323,0.243 -2.324,4.611 14.968,7.666c7.261,1.283 -12.619,5.949 -13.684,7.253c-2.379,2.912 1.163,1.53 8.987,1.748c12.675,0.353 -5.855,4.637 -11.128,7.54c-2.945,1.621 -21.594,16.288 -3.334,6.953c8.699,-4.447 26.085,-6.038 13.663,-1.126c-15.941,6.305 -26.912,23.86 -26.079,25.21c0.931,1.509 17.47,-12.831 29.053,-16.923c13.319,-4.706 -3.843,2.494 -11.96,13.969c-9.18,12.977 -13.956,9.403 -19.734,24.411c-4.503,11.698 3.561,-2.336 13.852,-6.331c10.049,-3.901 1.565,4.788 2.068,15.384c0.514,10.821 4.466,-0.538 12.668,-7.408c6.378,-5.342 -3.573,6.654 9.254,27.307c2.748,4.425 7.658,-7.729 8.208,-8.772Zm25.591,-63c6.369,-5.937 28.102,-5.012 34.157,1.43c8.982,9.556 4.093,-18.06 -15.566,-19.629c-6.13,-0.489 -1.874,6.85 -16.063,13.245c-3.372,1.52 -13.402,4.283 -1.923,8.326c4.038,1.422 33.136,2.85 22.357,-0.722c-1.755,-0.582 -1.89,0.529 -22.963,-2.65Zm-9.681,-17.713c-4.074,-2.082 -3.272,0.672 -3.198,0.928c0.707,2.429 7.26,3.533 3.198,-0.928Z" style="fill:#081534;"/><path d="M556.237,486.116c0,0 9.277,2.706 14.109,2.513c1.132,-0.045 -3.233,4.236 -7.712,3.652c-2.348,-0.306 -4.502,-2.51 -6.396,-6.165Z" style="fill:#dc143c;"/><path id="Gemini_Generated_Image_1xglpo1xglpo1xgl.png1" serif:id="Gemini_Generated_Image_1xglpo1xglpo1xgl.png" d="M187.963,378.976c-3.021,-5.371 -5.244,-10.695 -6.455,-15.862c-3.044,-12.994 -1.912,-24.975 0.184,-31.965c1.445,-4.819 3.721,-7.882 5.432,-9.248l2.182,-1.341l2.001,-0.653l1.963,-0.197l2.049,0.239l3.468,1.595l1.203,1.072c-3.258,-14.506 -2.981,-31.511 7.405,-47.644c1.689,-2.624 3.501,-3.871 4.854,-4.495l2.438,-0.742l2.853,-0.001c2.179,0.345 5.49,1.731 7.828,6.526c4.546,9.326 13.549,51.974 79.838,106.226c7.008,5.736 12.776,10.11 16.702,12.991c0.058,-0.128 0.116,-0.255 0.175,-0.379c1.415,-3.001 3.336,-5.176 4.846,-6.181l2.054,-1.044l1.836,-0.467l3.559,0.175l3.066,1.4l2.606,2.682c15.252,22.726 30.281,32.16 47.603,40.497c12.508,6.02 26.124,11.513 41.686,20.345c10.113,5.74 14.623,11.605 16.556,17.056c2.077,5.858 1.336,11.713 -0.586,17.802c-1.033,3.274 -2.428,6.65 -3.326,10.233c-0.953,3.806 -1.238,7.942 1.309,12.612c5.455,10.003 16.339,17.035 25.536,21.204c0.479,0.217 0.972,0.427 1.473,0.63c0.745,-1.684 2.268,-3.844 5.517,-5.968c0.395,-0.258 0.791,-0.534 1.185,-0.822l-1.44,-1.427l-1.236,-2.224l-0.555,-2.572l0.115,-2.091l0.717,-2.291c0.442,-0.959 1.283,-2.324 2.965,-3.89c3.555,-3.311 6.54,-6.2 8.868,-8.502c-1.715,-1.712 -2.122,-3.243 -2.307,-3.951l-0.294,-2.202l0.227,-2.089l0.698,-1.965l1.092,-1.716c0.688,-0.859 2.863,-2.676 5.986,-4.646c2.373,-1.497 6.402,-4.255 9.324,-6.277c-2.039,-3.103 -4.214,-6.958 -5.057,-10.309c-1.541,-6.131 0.145,-11.216 4.815,-14.335l2.129,-1.089l2.805,-0.577l2.074,0.114c0.639,0.104 1.325,0.278 2.079,0.559c2.254,0.839 7.53,4.747 34.51,3.81c24.506,-0.851 42.6,0.264 53.675,16.668c2.22,0.948 7.5,3.3 11.369,5.783c9.471,6.08 18.451,16.265 14.954,33.618c-0.122,0.603 -1.69,5.733 -3.94,9.576c-1.441,2.462 -3.232,4.421 -4.887,5.522l-2.72,1.315l-2.434,0.458l-2.257,-0.118l-2.178,-0.63c-1.621,-0.677 -3.549,-1.943 -5.189,-4.562c-0.818,-0.222 -2.553,-0.658 -3.808,-0.73c-2.153,-0.122 -4.484,0.064 -6.513,0.67c-0.542,0.162 -1.262,0.52 -1.744,0.776c0.476,0.964 1.64,3.147 3.221,4.924c1.934,2.173 3.06,4.302 5.465,4.741c3.129,0.572 7.237,-1.03 14.374,-4.44c16.502,-7.884 23.606,-16.066 25.592,-24.124c1.931,-7.831 -0.912,-14.957 -2.67,-19.96c-1.653,-4.704 -2.445,-8.504 -2.158,-10.822c1.014,-8.206 5.188,-14.592 11.959,-19.973c5.407,-4.298 12.677,-7.972 21.108,-11.724c21.952,-9.77 52.865,-20.433 73.833,-52.66c1.021,-1.569 2.117,-2.567 3.098,-3.237l1.755,-0.955l2.153,-0.614l2.313,-0.081l2.127,0.441l2.021,0.939l2.01,1.601c1.136,1.15 2.317,2.966 3.212,5.103c0.059,0.14 0.116,0.282 0.173,0.425c70.149,-50.494 89.178,-100.323 93.401,-111.508c1.957,-5.184 2.467,-7.97 3.159,-9.252l1.861,-2.474l2.182,-1.578l3.623,-1.053c0.944,-0.083 2.089,-0.047 3.497,0.257c1.146,0.247 4.347,1.519 7.017,5.617c3.74,5.741 10.423,21.114 9.104,36.945c-0.284,3.411 -0.862,6.856 -1.688,10.309c1.036,-1.062 1.991,-1.758 2.761,-2.178l3.719,-1.132l3.319,0.33l2.231,0.994l1.638,1.285l2.307,3.431c8.12,18.78 4.514,37.332 -4.895,54.102l2.938,-0.502l2.571,0.446l1.921,0.884l2.686,2.534l0.949,1.741l0.625,2.312c2.587,18.309 -2.532,33.239 -11.278,45.319c1.762,0.105 3.235,0.661 4.418,1.332c2.626,1.49 4.96,4.369 5.377,9.062c0.634,7.134 -5.333,23.803 -10.997,31.318c-2.129,2.825 -4.702,5.477 -7.619,7.959l1.587,0.653l1.976,1.734l1.286,1.883c0.644,1.219 1.162,2.808 1.287,4.776c0.179,2.801 -0.593,7.304 -2.869,12.426c-3.448,7.758 -10.372,17.428 -20.726,24.074l2.027,1.867l1.419,2.855c0.336,1.209 0.645,4.453 -1.204,8.606c-2.457,5.517 -9.449,15.689 -22.446,21.415l1.286,2.97l0.148,3.388c-0.245,1.985 -1.219,4.36 -3.002,6.579c-1.959,2.438 -5.135,4.924 -6.361,5.896c-5.592,4.428 -12.112,7.059 -18.943,8.409c0.11,0.139 0.212,0.274 0.305,0.405l1.226,2.394l0.465,2.712l-0.559,3.191c-0.125,0.333 -1.167,2.513 -3.976,5.13c-5.33,4.966 -20.283,16.26 -41.928,16.319l0.576,1.253l0.326,3.092l-0.384,2.163l-0.867,1.998l-2.419,2.78c-13.6,10.76 -29.051,12.109 -43.103,9.359c-0.597,-0.117 -1.192,-0.241 -1.783,-0.373l0.055,1.174l-0.458,2.352l-0.982,2.1l-1.252,1.615c-0.835,0.878 -1.991,1.783 -3.612,2.551c-9.444,4.476 -18.151,4.901 -25.948,2.961l-0.316,1.536l-1.046,1.983c-1.262,1.778 -4.88,4.493 -10.551,5.362c-4.803,0.736 -11.455,0.471 -17.861,-1.751l-0.902,1.85c-1.415,2.15 -4.42,4.735 -10.734,4.852c-6.851,0.127 -12.735,-1.95 -17.721,-5.287l-0.187,0.248c-0.844,0.801 -1.917,1.545 -3.252,2.116c-2.443,1.044 -6.569,1.631 -11.498,0.298c-2.602,-0.703 -5.592,-1.965 -8.643,-3.998c3.104,8.355 3.066,14.112 1.295,26.181c4.657,-0.159 9.423,1.355 13.382,6.862c1.043,0.017 2.446,0.069 3.711,0.211c4.69,0.527 8.67,3.279 11.196,7.783c3.659,6.525 3.791,17.595 -2.263,25.921c0.957,0.744 1.983,1.566 2.86,2.325c11.467,9.91 19.989,14.58 22.719,17.894c2.709,3.288 3.173,6.468 2.536,9.414c-0.556,2.573 -2.491,6.064 -8.145,9.155c-3.971,2.171 -8.092,3.367 -10.566,3.951c0.008,3.354 0.144,6.435 -0.302,8.84c-0.583,3.14 -1.903,5.643 -3.901,7.548c-1.954,1.863 -4.668,3.337 -8.764,3.627c-3.395,0.24 -6.512,0.237 -9.013,0.149c-0.479,4.48 -0.846,8.045 -1.567,10.708c-1.418,5.243 -4.058,8.407 -7.905,10.215c-3.022,1.421 -7.454,2.024 -14.173,0.578c-0.846,-0.182 -2.457,-0.635 -4.055,-1.104c-2.292,6.281 -5.97,15.203 -9.469,18.897c-4.254,4.492 -8.975,4.95 -12.971,3.085c-3.55,-1.657 -7.132,-3.721 -9.651,-5.252c-3.162,5.093 -10.036,15.127 -16.805,19.75c-6.902,4.714 -13.796,4.914 -19.347,-0.078c-8.452,-7.602 -13.464,-14.444 -16.295,-19.16c-0.866,0.597 -1.756,1.19 -2.654,1.738c-3.161,1.932 -6.437,3.34 -9.325,3.776c-5.439,0.82 -10.181,-0.762 -13.53,-6.2c-3.837,-6.233 -6.105,-12.293 -7.823,-16.566c-3.85,1.231 -7.015,2.223 -9.552,2.468c-3.985,0.383 -7.196,-0.503 -9.863,-2.468c-2.275,-1.677 -4.378,-4.349 -5.646,-8.877c-1.197,-4.274 -1.966,-8.515 -2.437,-11.695c-0.876,0.096 -1.778,0.179 -2.677,0.228c-3.53,0.194 -7.015,-0.094 -9.75,-1.045c-5.175,-1.8 -8.627,-5.399 -9.094,-11.604c-0.169,-2.25 -0.207,-5.188 -0.208,-7.321c-2.562,-0.659 -5.684,-1.55 -8.348,-2.639c-2.946,-1.204 -5.422,-2.732 -6.99,-4.27c-2.758,-2.705 -3.743,-5.829 -3.435,-8.927c0.244,-2.459 1.341,-5.449 4.903,-8.204c12.304,-9.516 19.504,-15.095 23.529,-18.574c-3.342,-4.331 -6.735,-11.324 -4.969,-20.881c0.799,-4.32 2.426,-6.958 4.131,-8.726c2.241,-2.325 4.885,-3.479 7.83,-3.906c1.279,-0.185 3.597,-0.214 4.864,-0.214c2.499,-3.568 5.368,-5.404 8.155,-6.379c1.846,-0.645 3.713,-0.9 5.547,-0.869c-1.25,-11.768 -1.722,-17.069 1.453,-26.15c-3.959,2.378 -8.877,4.118 -15.019,4.7l-3.919,-0.411l-2.882,-1.528l-1.423,-1.575c-5.763,3.884 -12.899,6.08 -21.674,4.926l-3.78,-1.274l-2.476,-2.076l-1.302,-2.008l-0.281,-0.793c-1.91,0.776 -3.845,1.327 -5.784,1.607c-5.673,0.82 -11.876,0.05 -15.748,-1.306c-3.221,-1.128 -5.361,-2.884 -6.476,-4.351l-1.578,-3.09l-0.057,-0.413c-9.029,2.57 -18.875,2.07 -28.795,-4.114l-2.628,-2.472l-0.977,-1.778l-0.542,-1.881l-0.111,-1.702c-5.466,1.103 -10.931,1.481 -16.115,0.806c-5.592,-0.729 -15.731,-3.727 -22.189,-6.996c-4.301,-2.177 -7.205,-4.869 -8.402,-6.941l-1.04,-2.462l-0.348,-2.112l0.532,-3.567c-11.464,-0.488 -21.57,-3.595 -29.049,-7.26c-6.56,-3.214 -11.21,-6.98 -13.526,-9.87c-2.866,-3.576 -3.317,-7.044 -2.936,-9.411l0.758,-2.501l0.634,-0.991c-9.452,-2.016 -18.831,-6.658 -26.3,-15.853l-1.154,-1.805l-0.79,-2.452l-0.043,-2.744l0.683,-2.409c0.253,-0.575 0.62,-1.222 1.133,-1.887c-16.034,-6.935 -22.572,-19.545 -23.341,-25.054c-0.513,-3.675 0.55,-6.378 1.711,-8.016l1.503,-1.658l0.172,-0.113c-10.38,-6.421 -19.19,-16.158 -23.388,-30.916c-0.745,-2.619 -1.102,-4.827 -1.034,-6.327l0.624,-3.125l1.43,-2.551l2.724,-2.338l1.346,-0.492c-9.335,-8.837 -14.647,-19.991 -16.728,-28.475c-1.446,-5.895 -1.279,-10.784 -0.434,-13.576c0.502,-1.659 1.247,-2.965 2.058,-3.968l1.359,-1.388l1.813,-1.211l2.165,-0.809l1.401,-0.17c-5.1,-6.745 -8.823,-14.008 -10.431,-21.639c-1.796,-8.523 -2.005,-16.386 -1.235,-21c0.734,-4.404 2.693,-7.135 4.278,-8.436l2.47,-1.471l3.175,-0.679l1.616,0.257Zm88.262,69.546c21.472,12.303 15.868,10.206 0,0c-4.96,-2.842 -11.366,-6.452 -19.423,-10.909c-34.367,-19.007 -63.914,-45.479 -68.992,-50.029c-3.517,-3.151 -4.733,8.017 -1.996,21.003c9.999,47.439 116.387,75.871 64.199,60.464c-19.24,-5.68 -55.258,-25.928 -59.883,-28.529c-7.032,-3.953 -3.282,26.823 19.621,40.765c27.016,16.446 73.578,21.868 67.427,24.299c-8.398,3.318 -69.606,-14.474 -75.541,-16.199c-3.731,-1.085 -3.289,1.07 -2.255,4.707c11.773,41.393 66.766,35.784 69.669,38.35c2.898,2.561 -1.53,2.877 -48.33,1.036c-4.575,-0.18 3.762,24.108 37.112,25.078c33.339,0.969 -20.417,4.776 -16.484,9.617c16.836,20.727 45.676,12.934 54.733,11.209c36.459,-6.943 -22.002,11.403 -27.077,13.574c-7.321,3.132 26.346,28.171 63.082,13.544c29.746,-11.844 -16.074,13.272 -17.661,14.142c-6.894,3.779 14.619,11.338 23.397,12.483c30.402,3.964 71.667,-36.351 50.115,-15.586c-9.24,8.903 -29.709,21.749 -26.412,23.805c27.01,16.838 53.351,-21.605 54.024,-22.026c8.976,-5.612 -19.411,27.944 -21.321,30.202c-2.108,2.492 6.761,5.018 14.351,3.921c19.311,-2.79 36.177,-43.854 28.354,-23.16c-3.96,10.473 -18.043,26.954 -12.452,27.689c24.232,3.188 31.408,-28.564 33.646,-28.941c6.146,-1.036 -11.877,28.089 -5.62,27.496c20.594,-1.95 23.456,-20.772 25.19,-24.841c1.251,-2.934 7.737,10.671 4.936,16.458c-10.799,22.321 -8.784,23.103 -6.561,46.267c0.67,6.982 -9.947,-6.13 -16.569,4.62c-4.092,6.644 -12.966,-2.024 -14.977,8.851c-2.156,11.661 6.887,17.759 7.035,17.929c2.054,2.362 0.88,3.732 -28.691,26.603c-7.393,5.718 11.223,9.449 15.096,10.417c3.102,0.775 1.7,7.171 2.194,13.727c0.592,7.861 14.506,4.145 19.198,4.019c2.556,-0.069 1.088,6.382 4.475,18.475c2.463,8.795 8.61,4.873 20.274,1.381c3.046,-0.912 4.466,10.221 11.682,21.942c4.267,6.931 14.668,-2.988 19.92,-6.038c4.597,-2.669 -0.229,5.54 20.36,24.058c8.698,7.823 24.185,-18.629 24.717,-19.85c3.587,-8.24 6.124,-1.953 19.038,4.075c5.43,2.534 12.559,-21.353 13.174,-23.412c0.643,-2.153 8.358,1.252 11.55,1.938c14.013,3.015 12.207,-3.889 14.383,-21.01c0.316,-2.488 3.071,0.104 15.934,-0.806c6.643,-0.47 5.104,-6.631 5.237,-13.759c0.57,-7.883 4.997,-3.799 14.887,-9.205c10.346,-5.656 -0.373,-7.125 -18.562,-22.845c-6.254,-5.405 -10.926,-6.014 -5.289,-12.141c7.292,-7.926 4.931,-21.134 -1.986,-21.911c-5.351,-0.601 -6.306,1.064 -9.378,-3.387c-6.561,-9.507 -17.692,3.577 -16.522,-3.669c4.057,-25.132 4.063,-25.922 -7.322,-48.581c-0.734,-1.46 4.163,-20.627 7.461,-11.085c8.444,24.431 28.411,23.807 26.265,19.017c-0.824,-1.839 -9.18,-20.488 -9.174,-23.465c0.026,-13.939 6.761,28.4 32.357,27.927c9.112,-0.169 1.974,-5.144 -8.731,-25.803c-8.452,-16.312 6.408,6.023 14.698,14.36c9.271,9.324 25.525,7.333 27.439,4.637c1.104,-1.555 -22.535,-26.664 -23.291,-30.15c-4.025,-18.542 18.266,37.816 53.827,20.963c5.578,-2.644 -4.079,-6.868 -24.349,-24.517c-2.125,-1.85 -0.277,-3.545 1.962,-1.926c4.696,3.396 43.289,31.313 71.921,8.66c3.341,-2.643 -9.863,-8.697 -23.367,-16.803c-20.371,-12.229 10.369,3.406 30.301,3.713c24.06,0.371 38.849,-15.353 39.111,-16.048c1.155,-3.066 -38.235,-14.916 -39.848,-16.148c-14.697,-11.227 34.492,15.625 59.979,-4.558c1.966,-1.557 10.487,-7.877 3.702,-9.309c-20.765,-4.383 -20.748,-4.243 -22.545,-4.646c-13.179,-2.952 3.535,-1.196 16.937,-2.827c22.592,-2.749 31.228,-21.161 30.631,-23.309c-0.445,-1.6 -46.298,1.191 -49.753,0.189c-10.666,-3.095 20.781,-1.813 42.699,-10.486c22.919,-9.069 31.239,-36.399 24.846,-34.724c-5.891,1.543 -62.687,16.418 -74.363,16.277c-29.774,-0.359 55.978,-5.419 79.579,-36.732c6.636,-8.805 14.458,-32.686 5.018,-27.655c-4.729,2.52 -54.697,29.15 -60.862,27.989c-14.628,-2.753 75.313,-20.405 66.727,-81.184c-0.563,-3.982 -13.356,9.055 -14.223,9.813c-28.589,24.995 -59.644,40.85 -60.352,39.828c-1.917,-2.766 91.988,-54.424 68.383,-109.017c-2.13,-4.926 -6.169,8.138 -20.532,26.475c-15.3,19.533 -45.395,45.092 -45.67,45.23c-12.611,6.324 47.534,-44.024 51.26,-88.743c1.415,-16.977 -7.854,-33.353 -9.575,-33.725c-2.839,-0.613 -1.876,1.239 -4.768,8.898c-4.523,11.979 -25.321,67.058 -104.621,121.136c-0.325,0.222 -1.616,1.102 -2.732,-4.091c-0.159,-0.741 -2.642,-12.292 -5.722,-7.557c-36.762,56.503 -101.919,50.916 -105.615,80.834c-0.941,7.615 24.11,37.728 -25.441,61.404c-19.094,9.123 -22.924,5.287 -29.657,-2.281c-19.445,-21.857 18.026,-23.829 21.75,-16.292c3.686,7.459 8.573,-7.188 8.756,-8.093c4.821,-23.925 -22.741,-29.313 -24.059,-31.516c-9.368,-15.652 -25.686,-15.336 -47.481,-14.58c-36.865,1.28 -36.63,-5.97 -39.257,-4.216c-5.707,3.812 5.225,16.95 6.205,18.128c2.683,3.224 -17.571,13.439 -19.396,15.718c-0.378,0.473 -0.946,1.811 6.578,3.745c1.825,0.469 1.011,2.02 -15.689,17.57c-3.412,3.177 1.082,2.132 8.508,3.528c2.325,0.437 -3.085,7.247 -11.379,12.667c-7.924,5.178 5.04,5.136 5.809,5.332c3.359,0.856 -1.91,4.784 -2.264,5.048c-3.591,2.677 -36.235,-7.761 -47.945,-29.233c-12.548,-23.008 19.827,-37.09 -10.75,-54.445c-38.431,-21.813 -64.896,-22.917 -92.095,-63.446c-2.493,-3.714 -5.985,9.267 -6.234,10.19c-0.669,2.486 -2.83,2.194 -26.968,-17.561c-85.084,-69.634 -78.368,-120.569 -85.525,-109.453c-19.913,30.931 2.685,65.362 7.894,73.676c23.712,37.85 66.649,76.043 33.553,46.025c-42.531,-38.575 -45.331,-43.291 -61.402,-70.234c-3.05,-5.114 -9.531,12.176 -4.826,32.263c7.611,32.496 60.74,70.674 86.603,87.309Z" style="fill:#daa520;"/></g><g><g><path d="M387.556,238.101l45.951,-26.141l-6.923,-12.169l-30.654,17.438l-4.154,-7.301l25.438,-14.471l-6.131,-10.778l-25.438,14.471l-3.56,-6.258l30.654,-17.438l-6.923,-12.169l-45.951,26.141l27.69,48.675Z" style="fill:#fff;fill-rule:nonzero;"/><path d="M482.771,196.384l21.667,-6.189l-31.674,-19.865l16.294,-33.982l-20.769,5.932l-8.774,19.77l-18.918,-11.86l-21.667,6.189l31.674,19.865l-16.294,33.982l20.769,-5.932l8.774,-19.77l18.918,11.86Z" style="fill:#fff;fill-rule:nonzero;"/><path d="M499.769,163.16c0.397,17.529 12.45,28.525 34.378,28.028c21.861,-0.496 33.469,-12.029 33.072,-29.557c-0.397,-17.529 -12.517,-28.524 -34.378,-28.028c-21.928,0.497 -33.469,12.029 -33.072,29.557Zm17.662,-0.401c-0.196,-8.664 4.548,-14.107 15.745,-14.361c11.13,-0.252 16.117,4.969 16.313,13.634c0.196,8.664 -4.548,14.107 -15.678,14.359c-11.197,0.254 -16.183,-4.968 -16.38,-13.632Z" style="fill:#fff;fill-rule:nonzero;"/><path d="M572.166,190.454l30.787,7.691c17.916,4.476 32.079,-3.256 36.215,-19.814c4.136,-16.558 -4.727,-30.041 -22.643,-34.517l-30.787,-7.691l-13.572,54.33Zm20.565,-9.705l6.592,-26.389l13.712,3.425c7.373,1.842 10.948,8.438 9.009,16.2c-1.971,7.891 -8.228,12.031 -15.601,10.189l-13.712,-3.425Z" style="fill:#fff;fill-rule:nonzero;"/><path d="M648.866,181.856c-8.393,15.394 -3.425,30.935 15.832,41.433c19.199,10.467 35.011,6.255 43.403,-9.139c8.393,-15.394 3.367,-30.966 -15.832,-41.433c-19.257,-10.499 -35.011,-6.255 -43.403,9.139Zm15.511,8.457c4.148,-7.609 10.974,-9.962 20.808,-4.601c9.775,5.329 11.495,12.341 7.346,19.951c-4.148,7.609 -10.974,9.962 -20.749,4.633c-9.834,-5.361 -11.554,-12.373 -7.405,-19.983Z" style="fill:#fff;fill-rule:nonzero;"/></g><path d="M373.48,159.36l-0.078,-0.135l0.081,-0.21l0.154,0.013l0.066,-0.14l0.222,0.035l0.078,0.135l16.185,1.316l3.849,6.076l-16.443,-0.571l-7.719,14.53l-3.341,-6.369l6.945,-14.678Z" style="fill:#fff;"/></g><g><path d="M313.349,848.56l-5.969,-6.226c-0.087,-0.09 -0.126,-0.312 0.009,-0.442l11.286,-17.488l-14.617,14.015c-0.135,0.13 -0.312,0.126 -0.442,-0.009l-4.845,-5.053l6.496,-6.229l25.17,-23.959l5.969,6.226c0.087,0.09 0.126,0.312 -0.009,0.442l-11.286,17.488l14.842,-14.231l4.974,5.188l-31.58,30.278Z" style="fill:#fff;fill-rule:nonzero;"/><path d="M354.283,826.905l-29.753,32.075l-5.361,-4.973l29.753,-32.075l5.361,4.973Z" style="fill:#fff;fill-rule:nonzero;"/><path d="M346.887,877.908l-6.67,-5.468c-0.097,-0.079 -0.162,-0.295 -0.044,-0.44l9.116,-18.712l-12.838,15.661c-0.119,0.145 -0.295,0.162 -0.44,0.044l-5.414,-4.438l5.706,-6.96l22.126,-26.795l6.67,5.468c0.097,0.079 0.162,0.295 0.044,0.44l-9.116,18.712l13.036,-15.902l5.559,4.557l-27.735,33.835Z" style="fill:#fff;fill-rule:nonzero;"/><path d="M383.946,859.484l-3.901,-2.71l-16.76,24.124l3.901,2.71l6.312,-9.085l-3.388,-2.354l4.137,-5.954l9.034,6.276c0.154,0.107 0.15,0.332 0.078,0.435l-14.371,20.685l-5.903,-4.101l1.747,-2.515c-0.963,1.386 -2.877,1.731 -4.262,0.768l-4.825,-3.352c-1.386,-0.963 -1.679,-2.841 -0.716,-4.227l21.467,-30.9c0.963,-1.386 2.825,-1.766 4.211,-0.803l10.728,7.453c1.386,0.963 1.731,2.877 0.768,4.262l-4.564,6.57l-5.903,-4.101l2.211,-3.182Z" style="fill:#fff;fill-rule:nonzero;"/><path d="M408.55,866.395l-18.34,31.63l-4.109,-2.383l18.34,-31.63l-6.218,-3.605l-20.409,35.199c-0.846,1.46 -0.401,3.308 1.059,4.154l11.3,6.552c1.46,0.846 3.339,0.347 4.186,-1.113l20.409,-35.199l-6.218,-3.605Z" style="fill:#fff;fill-rule:nonzero;"/><path d="M429.936,875.327l-5.079,-2.417l0.007,-2.488l10.007,-0.084l0.012,4.92l-4.947,0.069Zm-11.468,16.83l3.894,1.853l-3.115,6.547l-3.894,-1.853l-4.753,9.989l7.732,3.679l-3.088,6.49l-14.222,-6.767l18.796,-39.506l14.222,6.767l-3.088,6.49l-7.732,-3.679l-4.753,9.989Z" style="fill:#fff;fill-rule:nonzero;"/><path d="M454.126,933.54l-6.781,-2.382l6.815,-19.4l-11.311,17.49c-0.062,0.177 -0.222,0.253 -0.339,0.212l-6.486,-2.279c-0.177,-0.062 -0.253,-0.222 -0.191,-0.398l2.112,-20.721l-6.815,19.4l-6.84,-2.403l14.56,-41.256l8.373,2.942l-3.046,29.601l16.078,-25.023l8.373,2.942l-14.501,41.277Z" style="fill:#fff;fill-rule:nonzero;"/><path d="M501.46,906.307l1.252,-7.078l-15.509,-2.743l-7.619,43.081l7.078,1.252l3.178,-17.971l4.247,0.751l1.263,-7.139l-4.247,-0.751l1.927,-10.893l8.432,1.491Z" style="fill:#fff;fill-rule:nonzero;"/><path d="M515.176,900.641l-4.808,43.485l-7.268,-0.804l4.808,-43.485l7.268,0.804Z" style="fill:#fff;fill-rule:nonzero;"/><path d="M539.55,904.978c0.062,-1.624 -1.26,-3.05 -2.946,-3.114l-13.053,-0.497c-1.686,-0.064 -3.05,1.26 -3.112,2.884l-1.436,37.723c-0.062,1.624 1.197,3.048 2.884,3.112l13.053,0.497c1.686,0.064 3.113,-1.258 3.174,-2.881l0.582,-15.301l-7.182,-0.273l-0.423,11.117l-4.747,-0.181l1.117,-29.354l4.747,0.181l-0.423,11.117l7.182,0.273l0.582,-15.301Z" style="fill:#fff;fill-rule:nonzero;"/><path d="M547.467,945.614l7.176,-0.403l-0.627,-11.17l4.743,-0.266l0.627,11.17l7.176,-0.403l-2.285,-40.686c-0.091,-1.622 -1.541,-2.918 -3.226,-2.824l-13.042,0.732c-1.685,0.095 -2.918,1.541 -2.827,3.164l2.285,40.686Zm5.126,-36.908l4.743,-0.266l1.023,18.221l-4.743,0.266l-1.023,-18.221Z" style="fill:#fff;fill-rule:nonzero;"/><path d="M601.321,897.768c-0.335,-1.654 -1.955,-2.729 -3.609,-2.394l-15.743,3.188l8.683,42.88l7.045,-1.427l-3.622,-17.887l8.698,-1.761c1.654,-0.335 2.729,-1.955 2.394,-3.609l-3.845,-18.99Zm-8.686,17.255l-2.196,-10.842l4.656,-0.943l2.196,10.842l-4.656,0.943Z" style="fill:#fff;fill-rule:nonzero;"/><path d="M618.571,935.333l6.88,-2.079l-3.236,-10.709l4.547,-1.374l3.236,10.709l6.88,-2.079l-11.786,-39.008c-0.47,-1.556 -2.184,-2.474 -3.799,-1.986l-12.504,3.778c-1.615,0.488 -2.474,2.184 -2.004,3.739l11.786,39.008Zm-3.695,-37.079l4.547,-1.374l5.279,17.47l-4.547,1.374l-5.279,-17.47Z" style="fill:#fff;fill-rule:nonzero;"/><path d="M646.471,882.536c-0.623,-1.568 -2.408,-2.339 -3.977,-1.716l-14.928,5.93l16.151,40.66l6.68,-2.653l-5.422,-13.65l4.414,-1.754l5.422,13.65l6.68,-2.653l-5.653,-14.231c-0.6,-1.51 -2.385,-2.28 -3.954,-1.658c1.568,-0.623 2.339,-2.408 1.716,-3.977l-7.13,-17.948Zm0.265,20.137l-4.414,1.754l-5.422,-13.65l4.414,-1.754l5.422,13.65Z" style="fill:#fff;fill-rule:nonzero;"/><path d="M670.129,916.456l6.416,-3.239l-5.041,-9.987l4.24,-2.14l5.041,9.987l6.416,-3.239l-18.363,-36.378c-0.732,-1.451 -2.579,-2.059 -4.086,-1.298l-11.661,5.886c-1.506,0.76 -2.059,2.579 -1.326,4.03l18.363,36.378Zm-10.06,-35.879l4.24,-2.14l8.224,16.292l-4.24,2.14l-8.224,-16.292Z" style="fill:#fff;fill-rule:nonzero;"/><path d="M700.374,856.589l-3.581,2.402l20.366,30.365l-5.969,4.004l-20.366,-30.365l-3.53,2.367l-4.004,-5.969l13.08,-8.773l4.004,5.969Z" style="fill:#fff;fill-rule:nonzero;"/><path d="M717.194,838.524c-1.039,-1.33 -2.969,-1.567 -4.299,-0.528l-12.657,9.889l26.936,34.475l5.664,-4.425l-9.043,-11.574l3.743,-2.924l9.043,11.574l5.664,-4.425l-9.428,-12.066c-1,-1.28 -2.931,-1.517 -4.26,-0.478c1.33,-1.039 1.567,-2.969 0.528,-4.299l-11.89,-15.218Zm5.919,19.249l-3.743,2.924l-9.043,-11.574l3.743,-2.924l9.043,11.574Z" style="fill:#fff;fill-rule:nonzero;"/><path d="M726.659,823.488l-4.164,3.782l-2.299,-0.951l3.72,-9.29l4.557,1.856l-1.814,4.603Zm21.564,42.05l5.32,-4.833l-7.522,-8.281l3.516,-3.194l7.522,8.281l5.32,-4.833l-27.4,-30.163c-1.093,-1.203 -3.035,-1.296 -4.284,-0.161l-9.669,8.783c-1.249,1.135 -1.296,3.035 -0.203,4.238l27.4,30.163Zm-19.264,-31.896l3.516,-3.194l12.271,13.509l-3.516,3.194l-12.271,-13.509Z" style="fill:#fff;fill-rule:nonzero;"/><path d="M749.841,813.252l-3.321,3.483l8.005,7.635l6.212,-6.513c1.122,-1.176 3.066,-1.222 4.287,-0.057l14.066,13.415c1.221,1.165 1.222,3.066 0.1,4.241l-9.059,9.498c-1.165,1.221 -3.063,1.31 -4.285,0.146l-9.724,-9.274l4.961,-5.201l6.694,6.384l3.321,-3.483l-7.96,-7.592l-6.168,6.468c-1.165,1.221 -3.109,1.267 -4.33,0.102l-14.066,-13.415c-1.221,-1.165 -1.224,-3.154 -0.102,-4.33l9.059,-9.498c1.122,-1.176 3.066,-1.222 4.287,-0.057l9.679,9.231l-4.961,5.201l-6.694,-6.384Z" style="fill:#fff;fill-rule:nonzero;"/></g></svg>